<svg id="svg" version="1.1" xmlns="http://www.w3.org/2000/svg" xmlns:xlink="http://www.w3.org/1999/xlink" width="400" height="400" viewBox="0, 0, 400,400"><g id="svgg"><path id="path0" d="M84.617 154.004 C 81.560 156.824,79.477 158.766,76.519 161.555 C 75.361 162.646,72.568 165.178,70.313 167.180 C 68.057 169.183,65.569 171.454,64.785 172.227 C 64.001 173.000,62.824 174.062,62.171 174.586 C 61.518 175.110,61.064 175.669,61.161 175.828 C 61.259 175.986,61.024 176.216,60.637 176.338 C 60.251 176.461,59.007 177.502,57.871 178.651 L 55.807 180.742 55.736 204.212 L 55.664 227.683 87.793 227.721 L 119.922 227.759 119.922 203.723 C 119.922 190.504,119.785 179.688,119.618 179.688 C 119.450 179.688,118.703 179.101,117.957 178.383 C 117.212 177.666,114.052 174.810,110.937 172.036 C 107.821 169.262,104.908 166.641,104.463 166.211 C 104.018 165.781,103.140 164.980,102.511 164.431 C 100.732 162.879,91.369 154.322,89.855 152.866 C 88.026 151.107,87.673 151.184,84.617 154.004 M94.531 165.374 C 95.283 166.090,97.744 168.311,100.000 170.309 C 102.256 172.308,105.525 175.279,107.265 176.913 C 109.004 178.546,111.245 180.626,112.245 181.533 L 114.063 183.184 114.063 202.513 L 114.063 221.843 88.036 221.867 C 73.722 221.880,61.880 221.970,61.722 222.068 C 61.564 222.166,61.466 213.502,61.504 202.815 L 61.573 183.385 63.697 181.391 C 64.865 180.295,66.699 178.652,67.773 177.740 C 68.848 176.828,70.297 175.487,70.995 174.760 C 71.693 174.032,72.376 173.438,72.513 173.438 C 72.650 173.438,73.147 173.042,73.617 172.559 C 75.048 171.088,78.523 167.902,82.227 164.666 C 84.160 162.976,86.249 161.049,86.868 160.383 L 87.994 159.172 90.579 161.623 C 92.001 162.970,93.779 164.658,94.531 165.374 M135.112 169.531 C 135.089 169.639,135.045 178.228,135.015 188.618 L 134.961 207.510 141.137 207.353 C 144.534 207.267,147.434 207.027,147.582 206.821 C 147.730 206.614,148.071 206.428,148.340 206.406 C 148.608 206.385,149.164 206.341,149.574 206.309 C 150.564 206.231,154.384 203.192,154.090 202.716 C 153.964 202.511,154.014 202.344,154.201 202.344 C 154.679 202.344,155.921 199.635,155.647 199.192 C 155.524 198.992,155.612 198.828,155.843 198.828 C 156.368 198.828,156.381 179.814,155.856 179.490 C 155.662 179.370,155.585 179.057,155.686 178.795 C 156.330 177.117,152.295 170.729,150.924 171.255 C 150.602 171.379,150.455 171.306,150.589 171.089 C 150.720 170.877,150.597 170.676,150.316 170.644 C 150.035 170.611,149.629 170.562,149.414 170.536 C 149.199 170.509,148.760 170.316,148.438 170.108 C 147.841 169.722,135.190 169.174,135.112 169.531 M336.449 169.885 C 332.766 171.321,331.173 173.841,331.153 178.268 C 331.130 183.163,332.711 185.448,340.081 191.176 C 344.845 194.878,345.464 195.698,345.488 198.334 C 345.510 200.694,344.550 201.953,342.730 201.953 C 342.217 201.953,341.797 202.129,341.797 202.344 C 341.797 202.559,341.611 202.734,341.383 202.734 C 341.156 202.734,341.095 202.531,341.249 202.283 C 341.449 201.959,341.173 201.902,340.276 202.082 C 339.493 202.238,339.113 202.188,339.261 201.947 C 339.392 201.736,339.164 201.563,338.754 201.563 C 338.072 201.563,337.310 200.307,336.578 197.972 C 336.168 196.667,330.469 197.441,330.469 198.802 C 330.469 208.189,347.749 211.143,351.261 202.356 C 351.936 200.666,351.766 194.475,351.030 193.936 C 350.685 193.684,350.491 193.389,350.599 193.281 C 351.276 192.604,347.077 187.970,343.646 185.610 C 342.629 184.910,341.797 184.408,341.797 184.494 C 341.797 184.580,340.807 183.736,339.597 182.618 C 337.022 180.242,336.309 177.629,337.752 175.863 C 338.482 174.971,342.578 173.956,342.578 174.668 C 342.578 174.850,342.842 175.000,343.164 175.000 C 343.486 175.000,343.750 175.186,343.750 175.414 C 343.750 175.641,343.953 175.702,344.201 175.549 C 344.463 175.387,344.547 175.440,344.401 175.677 C 344.262 175.900,344.411 176.301,344.731 176.566 C 345.051 176.832,345.313 177.448,345.313 177.936 C 345.313 178.424,345.532 178.897,345.801 178.987 C 346.675 179.282,351.172 178.083,351.172 177.555 C 351.172 176.801,349.562 173.284,349.066 172.955 C 348.828 172.797,348.795 172.666,348.994 172.662 C 349.192 172.659,348.947 172.222,348.449 171.692 C 347.950 171.161,347.392 170.820,347.209 170.934 C 347.025 171.047,346.875 170.943,346.875 170.703 C 346.875 170.463,346.699 170.375,346.484 170.508 C 346.270 170.641,346.094 170.584,346.094 170.383 C 346.094 169.148,339.246 168.795,336.449 169.885 M162.500 184.961 C 162.500 195.560,162.630 200.391,162.914 200.391 C 163.141 200.391,163.222 200.560,163.094 200.768 C 162.806 201.234,164.213 204.057,165.251 205.094 C 165.671 205.515,166.018 205.728,166.022 205.566 C 166.025 205.405,166.157 205.469,166.315 205.707 C 167.308 207.209,176.172 208.805,176.172 207.482 C 176.172 207.248,176.419 207.150,176.720 207.266 C 177.371 207.516,180.371 206.071,181.363 205.030 C 181.747 204.627,181.923 204.294,181.753 204.291 C 181.584 204.288,181.690 204.130,181.990 203.940 C 183.475 203.000,183.655 201.070,183.757 185.044 L 183.856 169.502 180.698 169.614 L 177.539 169.727 177.539 184.668 C 177.539 193.463,177.392 199.609,177.181 199.609 C 176.984 199.609,176.932 199.718,177.065 199.851 C 177.358 200.145,176.339 201.209,175.226 201.773 C 174.282 202.251,170.339 201.765,169.727 201.094 C 169.451 200.793,169.509 200.760,169.922 200.982 C 170.244 201.156,170.112 200.863,169.629 200.331 L 168.750 199.364 168.750 184.447 L 168.750 169.531 165.625 169.531 L 162.500 169.531 162.500 184.961 M190.625 188.477 L 190.625 207.422 193.750 207.422 C 196.453 207.422,196.880 207.330,196.908 206.738 C 196.927 206.362,196.928 203.110,196.911 199.512 L 196.880 192.969 199.221 192.969 C 200.990 192.969,201.563 193.105,201.563 193.527 C 201.563 193.834,201.782 194.317,202.051 194.601 C 202.319 194.885,202.598 195.469,202.670 195.898 C 202.803 196.690,204.131 200.309,205.466 203.516 C 205.869 204.482,206.302 205.761,206.429 206.357 C 206.660 207.438,206.667 207.440,209.796 207.384 L 212.932 207.327 212.682 206.105 C 212.428 204.855,210.973 200.822,209.947 198.522 C 209.632 197.816,209.375 197.011,209.375 196.733 C 209.375 196.454,208.960 195.207,208.453 193.961 L 207.532 191.696 209.058 190.317 C 210.625 188.901,212.323 185.818,211.906 185.144 C 211.778 184.936,211.859 184.766,212.086 184.766 C 212.347 184.766,212.500 183.464,212.500 181.250 C 212.500 179.036,212.347 177.734,212.086 177.734 C 211.859 177.734,211.770 177.576,211.890 177.383 C 212.648 176.156,207.993 170.408,206.653 170.917 C 206.337 171.037,206.214 170.999,206.380 170.834 C 207.026 170.187,202.272 169.564,196.582 169.548 L 190.625 169.531 190.625 188.477 M225.202 171.191 C 225.060 172.104,224.618 174.346,224.219 176.172 C 223.820 177.998,223.106 181.338,222.633 183.594 C 222.159 185.850,221.630 188.280,221.456 188.994 C 221.283 189.708,221.237 190.543,221.354 190.849 C 221.472 191.156,221.384 191.406,221.159 191.406 C 220.935 191.406,220.636 192.241,220.495 193.262 C 220.354 194.282,219.988 195.996,219.681 197.070 C 219.375 198.145,218.953 200.078,218.744 201.367 C 218.535 202.656,218.259 204.150,218.132 204.688 C 217.440 207.597,217.154 207.314,220.851 207.387 C 224.320 207.455,225.429 206.720,224.390 205.040 C 224.216 204.758,224.262 204.668,224.502 204.817 C 224.756 204.974,225.001 204.159,225.158 202.631 C 225.296 201.291,225.442 199.932,225.483 199.609 C 225.545 199.121,226.311 199.037,230.064 199.104 L 234.570 199.184 234.449 200.146 C 234.382 200.675,234.540 201.869,234.801 202.800 C 235.061 203.731,235.326 204.912,235.389 205.426 C 235.627 207.339,235.770 207.422,238.835 207.422 L 241.756 207.422 241.596 206.152 C 241.507 205.454,241.351 204.443,241.250 203.906 C 241.148 203.369,240.880 201.787,240.653 200.391 C 240.427 198.994,239.976 196.989,239.652 195.934 C 239.328 194.879,239.063 193.527,239.063 192.930 C 239.063 192.332,238.894 191.739,238.689 191.612 C 238.483 191.485,238.411 191.132,238.528 190.827 C 238.645 190.521,238.602 190.047,238.432 189.772 C 238.081 189.204,238.016 188.890,237.658 186.035 C 237.516 184.907,237.237 183.984,237.037 183.984 C 236.836 183.984,236.771 183.826,236.890 183.632 C 237.095 183.300,236.889 182.234,235.331 175.586 C 234.978 174.082,234.601 172.104,234.493 171.191 L 234.296 169.531 229.878 169.531 L 225.459 169.531 225.202 171.191 M247.535 169.824 C 247.444 169.985,247.333 178.511,247.290 188.770 L 247.212 207.422 250.559 207.422 L 253.906 207.422 253.906 199.428 C 253.906 189.959,253.542 190.554,259.287 190.652 L 263.086 190.717 262.967 199.032 L 262.848 207.346 265.897 207.286 L 268.945 207.227 268.945 188.477 L 268.945 169.727 265.895 169.612 L 262.844 169.498 262.965 177.149 C 263.106 186.071,263.637 185.255,257.813 185.075 L 254.102 184.961 253.996 177.246 L 253.890 169.531 250.796 169.531 C 249.095 169.531,247.627 169.663,247.535 169.824 M282.130 172.546 C 281.690 174.218,280.943 177.344,280.469 179.492 C 279.995 181.641,279.367 184.347,279.074 185.507 C 278.781 186.667,278.634 187.766,278.747 187.949 C 278.860 188.132,278.766 188.281,278.539 188.281 C 278.311 188.281,278.123 188.853,278.121 189.551 C 278.118 190.249,277.851 191.695,277.527 192.764 C 277.203 193.833,277.023 194.932,277.128 195.206 C 277.233 195.479,277.149 195.703,276.941 195.703 C 276.733 195.703,276.563 196.199,276.563 196.804 C 276.563 197.410,276.291 198.820,275.959 199.938 C 275.627 201.056,275.452 202.127,275.571 202.319 C 275.689 202.511,275.627 202.727,275.434 202.799 C 275.240 202.871,275.019 203.896,274.943 205.078 L 274.805 207.227 277.838 207.341 C 280.060 207.424,280.911 207.320,281.020 206.950 C 281.102 206.672,281.497 204.863,281.898 202.930 L 282.627 199.414 287.022 199.219 C 290.257 199.075,291.371 199.143,291.242 199.475 C 291.146 199.724,291.333 201.042,291.656 202.405 C 291.979 203.768,292.275 205.410,292.313 206.055 L 292.383 207.227 295.508 207.227 L 298.633 207.227 298.495 205.078 C 298.419 203.896,298.201 202.738,298.010 202.503 C 297.819 202.269,297.750 201.990,297.856 201.884 C 297.962 201.778,297.786 200.827,297.466 199.771 C 297.146 198.716,296.882 197.280,296.879 196.582 C 296.877 195.884,296.743 195.313,296.582 195.313 C 296.421 195.313,296.275 194.917,296.259 194.434 C 296.225 193.466,295.335 188.820,295.006 187.891 C 294.891 187.568,294.834 187.147,294.879 186.953 C 294.924 186.760,294.837 186.321,294.686 185.977 C 294.535 185.633,294.389 185.176,294.361 184.961 C 294.111 183.005,292.809 176.600,291.661 171.680 L 291.205 169.727 287.067 169.616 L 282.928 169.506 282.130 172.546 M303.638 184.277 C 303.783 199.563,303.784 199.577,304.648 202.148 C 305.463 204.577,308.315 207.076,310.422 207.208 C 310.675 207.224,311.012 207.366,311.170 207.525 C 313.417 209.772,325.398 205.189,323.948 202.637 C 323.857 202.476,323.989 202.344,324.241 202.344 C 324.508 202.344,324.615 202.017,324.496 201.562 C 324.384 201.132,324.434 200.868,324.607 200.975 C 325.144 201.307,325.443 192.905,325.316 181.055 L 325.195 169.727 321.964 169.613 L 318.733 169.499 318.759 184.401 L 318.786 199.302 317.889 200.437 C 316.963 201.608,313.246 202.729,312.956 201.924 C 312.884 201.725,312.503 201.563,312.109 201.563 C 310.294 201.563,309.992 199.038,309.976 183.712 L 309.961 169.532 306.729 169.532 L 303.497 169.531 303.638 184.277 M147.068 175.835 C 148.588 176.876,150.000 179.275,150.000 180.816 C 150.000 181.459,150.142 182.073,150.316 182.180 C 150.666 182.397,150.643 193.604,150.290 194.531 C 150.167 194.854,149.976 195.772,149.864 196.571 C 149.447 199.570,147.309 201.290,143.652 201.566 L 141.016 201.766 141.016 197.235 C 141.016 194.743,141.132 188.721,141.273 183.852 L 141.531 175.000 143.690 175.000 C 145.256 175.000,146.185 175.230,147.068 175.835 M203.582 175.984 C 205.399 177.336,207.227 182.013,206.191 182.654 C 205.997 182.774,205.875 183.078,205.919 183.330 C 206.276 185.374,203.172 187.500,199.832 187.500 L 197.383 187.500 197.129 183.924 C 196.806 179.379,196.806 176.416,197.128 175.577 C 197.498 174.613,202.135 174.906,203.582 175.984 M230.298 177.972 C 230.169 178.486,230.231 178.906,230.437 178.906 C 230.643 178.906,230.797 179.214,230.781 179.590 C 230.730 180.764,231.645 186.571,232.242 188.864 C 232.556 190.068,232.813 191.647,232.813 192.373 L 232.813 193.693 229.508 193.819 C 226.338 193.940,226.212 193.913,226.407 193.141 C 226.518 192.699,226.648 192.084,226.695 191.774 C 226.742 191.464,226.922 190.983,227.096 190.704 C 227.271 190.425,227.317 189.947,227.200 189.642 C 227.083 189.337,227.145 188.990,227.338 188.871 C 227.531 188.751,227.799 187.823,227.933 186.807 C 228.067 185.792,228.432 183.884,228.743 182.568 C 229.055 181.251,229.200 179.889,229.066 179.540 C 228.932 179.191,229.017 178.906,229.255 178.906 C 229.493 178.906,229.688 178.369,229.688 177.711 C 229.688 176.954,229.842 176.612,230.110 176.777 C 230.342 176.921,230.427 177.459,230.298 177.972 M287.473 179.427 C 287.488 180.036,287.836 181.882,288.248 183.529 C 288.659 185.176,289.116 187.622,289.263 188.965 C 289.410 190.308,289.707 191.406,289.924 191.406 C 290.141 191.406,290.208 191.692,290.074 192.042 C 289.940 192.391,290.011 192.895,290.233 193.162 C 290.548 193.541,289.879 193.662,287.165 193.717 C 283.966 193.782,283.678 193.725,283.485 192.988 C 283.370 192.548,283.447 192.188,283.655 192.188 C 283.863 192.188,283.995 191.880,283.949 191.504 C 283.902 191.128,283.957 190.557,284.070 190.234 C 284.316 189.534,285.248 184.895,285.364 183.789 C 285.409 183.359,285.544 182.744,285.663 182.422 C 285.782 182.100,286.011 180.957,286.172 179.883 C 286.333 178.809,286.500 177.798,286.543 177.637 C 286.586 177.476,286.655 177.212,286.697 177.051 C 286.844 176.487,287.445 178.330,287.473 179.427 M248.721 182.513 C 248.634 183.215,248.561 182.734,248.559 181.445 C 248.556 180.156,248.627 179.582,248.717 180.169 C 248.806 180.756,248.808 181.810,248.721 182.513 M253.011 183.296 C 252.917 183.782,252.837 183.477,252.833 182.617 C 252.829 181.758,252.905 181.360,253.003 181.734 C 253.101 182.107,253.104 182.810,253.011 183.296 M248.713 191.504 C 248.620 191.987,248.544 191.592,248.544 190.625 C 248.544 189.658,248.620 189.263,248.713 189.746 C 248.806 190.229,248.806 191.021,248.713 191.504 M146.875 221.680 C 146.608 222.002,146.542 222.268,146.730 222.272 C 146.917 222.275,146.866 222.407,146.617 222.566 C 146.038 222.934,144.494 226.967,144.764 227.404 C 144.876 227.586,144.771 227.734,144.531 227.734 C 144.291 227.734,144.203 227.910,144.336 228.125 C 144.469 228.340,144.421 228.516,144.229 228.516 C 143.814 228.516,142.960 231.111,143.272 231.423 C 144.167 232.318,145.914 230.707,145.430 229.434 C 145.336 229.187,145.447 228.869,145.676 228.727 C 145.906 228.586,146.094 228.662,146.094 228.897 C 146.094 229.203,146.315 229.206,146.875 228.906 C 147.404 228.623,147.892 228.614,148.386 228.879 C 148.788 229.094,149.255 229.144,149.425 228.990 C 149.595 228.837,149.608 228.931,149.454 229.199 C 149.299 229.468,149.359 229.688,149.586 229.688 C 149.814 229.688,149.979 229.819,149.954 229.980 C 149.766 231.171,150.065 231.686,150.879 231.570 C 151.737 231.448,152.007 229.109,151.232 228.516 C 151.091 228.408,150.917 227.969,150.844 227.539 C 150.771 227.109,150.486 226.494,150.211 226.172 C 149.936 225.850,149.791 225.366,149.888 225.098 C 149.986 224.829,149.845 224.609,149.577 224.609 C 149.308 224.609,149.206 224.492,149.350 224.348 C 149.494 224.204,149.344 223.676,149.016 223.176 C 148.688 222.675,148.533 222.266,148.672 222.266 C 148.810 222.266,148.705 222.002,148.438 221.680 C 148.170 221.357,147.818 221.094,147.656 221.094 C 147.494 221.094,147.142 221.357,146.875 221.680 M153.862 221.191 C 153.597 221.783,153.751 228.516,154.030 228.516 C 154.237 228.516,154.306 229.213,154.187 230.101 C 153.992 231.555,154.044 231.676,154.819 231.566 C 155.715 231.438,156.157 223.506,155.364 221.777 C 155.110 221.223,154.036 220.804,153.862 221.191 M178.026 221.365 C 177.338 222.625,177.974 231.374,178.763 231.495 C 179.907 231.669,179.989 221.398,178.845 221.176 C 178.489 221.107,178.121 221.192,178.026 221.365 M195.714 221.635 C 193.279 222.529,191.829 227.710,193.536 229.418 C 193.848 229.730,194.020 230.069,193.917 230.171 C 193.376 230.713,195.262 231.421,197.278 231.432 C 200.394 231.450,201.563 230.402,201.563 227.588 C 201.563 226.131,201.449 225.738,201.122 226.066 C 200.804 226.383,200.493 226.389,200.009 226.087 C 199.040 225.482,197.180 226.029,197.347 226.869 C 197.451 227.392,197.821 227.514,199.033 227.423 C 200.091 227.345,200.414 227.424,200.048 227.673 C 199.752 227.873,199.630 228.233,199.778 228.472 C 199.925 228.711,199.850 228.906,199.609 228.906 C 199.369 228.906,199.263 229.053,199.374 229.232 C 199.582 229.569,199.278 229.643,197.219 229.753 C 194.805 229.882,193.957 226.827,195.550 223.746 C 196.022 222.835,196.300 222.671,196.993 222.897 C 197.465 223.051,198.115 223.211,198.438 223.253 C 198.964 223.321,200.194 223.744,200.825 224.073 C 200.957 224.142,201.045 223.810,201.020 223.335 C 200.943 221.813,197.892 220.835,195.714 221.635 M210.441 221.520 C 210.061 221.742,209.851 222.088,209.976 222.290 C 210.100 222.491,210.008 222.656,209.772 222.656 C 209.535 222.656,209.384 222.876,209.437 223.145 C 209.490 223.413,209.227 224.209,208.852 224.914 C 208.478 225.618,208.277 226.365,208.406 226.574 C 208.534 226.783,208.476 226.953,208.275 226.953 C 207.888 226.953,207.264 229.130,207.396 230.020 C 207.439 230.310,207.287 230.431,207.057 230.290 C 206.813 230.139,206.641 230.368,206.641 230.844 C 206.641 231.511,206.827 231.622,207.683 231.467 C 208.892 231.248,209.454 230.561,209.221 229.590 C 209.081 229.006,209.351 228.906,211.072 228.907 C 212.971 228.907,213.089 228.965,213.145 229.934 C 213.228 231.361,215.625 232.539,215.625 231.152 C 215.625 230.386,213.901 225.601,213.572 225.455 C 213.409 225.383,213.381 225.155,213.508 224.949 C 213.635 224.744,213.460 224.149,213.120 223.629 C 212.779 223.109,212.500 222.433,212.500 222.126 C 212.500 221.231,211.462 220.926,210.441 221.520 M217.663 221.424 C 217.290 221.661,217.190 222.974,217.273 226.593 L 217.383 231.445 218.359 231.445 C 219.248 231.445,219.341 231.287,219.392 229.688 C 219.446 227.982,219.439 227.971,219.144 229.297 C 218.888 230.446,218.863 230.353,218.987 228.711 C 219.068 227.637,219.135 226.450,219.137 226.074 C 219.139 225.698,219.327 225.391,219.554 225.391 C 219.782 225.391,219.870 225.549,219.751 225.742 C 219.632 225.935,220.061 226.656,220.705 227.345 C 221.348 228.034,221.875 228.822,221.875 229.095 C 221.875 229.369,222.271 229.885,222.754 230.244 C 223.237 230.602,223.369 230.766,223.047 230.607 C 222.537 230.356,222.533 230.407,223.013 230.999 C 224.756 233.146,226.346 226.560,225.197 221.947 C 224.675 219.847,223.643 221.145,223.438 224.161 L 223.242 227.025 222.304 226.208 C 221.787 225.758,221.474 225.391,221.608 225.391 C 221.742 225.391,221.417 224.751,220.887 223.969 C 220.356 223.187,219.922 222.386,219.922 222.188 C 219.922 221.991,219.765 221.926,219.572 222.045 C 219.380 222.164,219.122 221.998,218.999 221.677 C 218.747 221.023,218.399 220.957,217.663 221.424 M245.135 221.456 C 244.988 221.693,244.723 221.798,244.545 221.688 C 244.367 221.578,243.808 221.853,243.302 222.297 C 242.797 222.742,242.646 222.992,242.969 222.852 C 243.291 222.713,243.213 222.875,242.796 223.213 C 242.379 223.551,242.195 223.828,242.386 223.828 C 242.578 223.828,242.523 224.039,242.266 224.297 C 242.008 224.555,241.797 225.574,241.797 226.563 C 241.797 227.551,242.008 228.570,242.266 228.828 C 242.523 229.086,242.585 229.297,242.402 229.297 C 242.220 229.297,242.798 229.824,243.688 230.469 C 246.276 232.344,250.270 231.521,249.924 229.185 C 249.748 227.997,249.028 227.963,248.502 229.117 C 248.142 229.906,247.858 230.071,247.214 229.866 C 246.657 229.690,246.474 229.745,246.654 230.036 C 246.807 230.284,246.652 230.469,246.289 230.469 C 245.910 230.469,245.769 230.288,245.936 230.017 C 246.126 229.710,245.958 229.632,245.415 229.774 C 243.919 230.165,243.119 226.076,244.252 223.836 C 245.078 222.204,248.211 222.351,248.236 224.023 C 248.249 224.842,249.805 224.415,249.926 223.560 C 250.127 222.150,245.863 220.278,245.135 221.456 M255.859 221.472 C 255.859 221.680,255.596 221.749,255.273 221.626 C 254.951 221.502,254.688 221.614,254.688 221.875 C 254.688 222.136,254.427 222.249,254.108 222.127 C 253.554 221.914,252.463 223.262,252.651 223.926 C 252.697 224.087,252.540 224.219,252.302 224.219 C 252.064 224.219,251.963 224.461,252.076 224.757 C 252.190 225.053,252.103 225.475,251.884 225.694 C 251.651 225.928,251.613 226.474,251.794 227.011 C 251.964 227.516,252.060 228.226,252.008 228.589 C 251.955 228.951,252.271 229.440,252.710 229.675 C 253.149 229.909,253.466 230.302,253.414 230.546 C 253.363 230.791,253.984 231.156,254.796 231.357 C 256.357 231.744,259.140 231.427,258.813 230.899 C 258.707 230.727,259.040 230.362,259.552 230.088 C 260.147 229.769,260.401 229.372,260.254 228.988 C 260.093 228.567,260.175 228.481,260.529 228.700 C 260.930 228.948,261.001 228.476,260.872 226.442 C 260.690 223.584,259.842 222.386,257.397 221.534 C 255.865 221.000,255.859 221.000,255.859 221.472 M270.038 221.405 C 269.753 221.586,269.522 222.933,269.452 224.817 L 269.336 227.930 268.368 226.367 C 267.835 225.508,267.308 224.626,267.196 224.409 C 266.302 222.670,264.988 221.484,263.955 221.484 L 262.823 221.484 262.963 226.465 L 263.103 231.445 264.071 231.445 C 265.004 231.445,265.046 231.332,265.234 228.346 L 265.430 225.246 266.495 227.174 C 269.900 233.339,271.289 233.113,271.289 226.394 C 271.289 221.476,271.102 220.729,270.038 221.405 M288.603 221.293 C 288.523 221.373,287.113 221.474,285.470 221.518 C 282.848 221.587,282.459 221.692,282.279 222.378 C 282.126 222.965,282.186 223.048,282.522 222.713 C 282.768 222.467,283.549 222.266,284.258 222.266 L 285.547 222.266 285.547 226.758 C 285.547 230.091,285.673 231.250,286.035 231.250 C 286.402 231.251,286.503 230.129,286.442 226.730 L 286.362 222.208 287.976 222.325 C 288.904 222.392,289.651 222.259,289.733 222.011 C 289.870 221.600,288.907 220.989,288.603 221.293 M330.551 221.688 C 330.257 222.025,330.216 222.266,330.453 222.266 C 330.677 222.266,330.842 222.749,330.820 223.340 L 330.781 224.414 330.469 223.438 C 330.262 222.791,330.160 223.582,330.168 225.781 C 330.178 228.316,330.254 228.778,330.489 227.734 C 330.739 226.621,330.784 226.820,330.730 228.809 C 330.674 230.900,330.762 231.251,331.348 231.251 C 331.724 231.250,332.040 231.030,332.051 230.762 C 332.407 221.950,332.075 219.942,330.551 221.688 M338.086 221.484 C 337.953 221.699,337.515 221.875,337.113 221.875 C 336.711 221.875,335.983 222.434,335.497 223.117 C 335.010 223.801,334.820 224.231,335.075 224.074 C 335.382 223.884,335.460 223.991,335.305 224.394 C 335.177 224.727,334.893 225.000,334.674 225.000 C 334.072 225.000,334.564 228.962,335.227 229.460 C 335.537 229.693,335.905 230.187,336.045 230.560 C 336.198 230.969,336.536 231.146,336.899 231.006 C 337.230 230.880,337.500 230.970,337.500 231.208 C 337.500 231.677,339.482 231.779,340.948 231.387 C 341.448 231.253,342.019 230.717,342.217 230.197 C 342.415 229.676,342.736 229.349,342.932 229.469 C 343.127 229.590,343.187 229.309,343.066 228.846 C 342.915 228.268,342.988 228.091,343.298 228.282 C 343.618 228.480,343.750 227.977,343.750 226.563 C 343.750 225.136,343.619 224.644,343.293 224.846 C 342.992 225.031,342.916 224.921,343.068 224.523 C 343.700 222.877,338.998 220.009,338.086 221.484 M135.104 221.827 C 134.624 223.238,135.387 231.444,136.009 231.562 C 136.920 231.736,137.619 230.250,137.336 228.741 L 137.101 227.487 138.767 227.575 C 141.693 227.729,143.788 224.101,141.877 222.190 C 141.231 221.544,135.308 221.227,135.104 221.827 M158.579 221.582 C 158.361 223.067,158.404 229.077,158.625 227.930 C 158.876 226.624,158.912 226.791,158.842 228.947 C 158.766 231.320,158.823 231.523,159.555 231.486 C 160.269 231.450,160.372 231.123,160.547 228.346 L 160.742 225.246 161.836 227.263 C 162.438 228.373,163.141 229.416,163.399 229.582 C 163.656 229.747,164.062 230.234,164.300 230.664 C 164.546 231.107,165.138 231.445,165.668 231.445 C 166.598 231.445,166.602 231.426,166.711 226.465 L 166.820 221.484 165.784 221.484 C 164.765 221.484,164.750 221.522,164.927 223.649 C 165.025 224.840,164.959 225.905,164.780 226.016 C 164.600 226.127,164.465 226.515,164.481 226.879 C 164.503 227.417,164.570 227.395,164.844 226.758 C 165.110 226.139,165.185 226.294,165.207 227.507 C 165.222 228.348,165.103 228.905,164.941 228.743 C 164.780 228.582,164.648 228.303,164.648 228.122 C 164.648 226.239,158.818 219.957,158.579 221.582 M168.213 221.796 C 168.107 221.967,168.163 222.338,168.336 222.619 C 168.558 222.978,168.732 223.002,168.920 222.698 C 169.066 222.460,169.801 222.266,170.552 222.266 L 171.916 222.266 171.848 226.855 C 171.786 231.092,171.836 231.445,172.506 231.445 C 172.905 231.445,173.295 231.117,173.372 230.715 C 173.459 230.262,173.350 230.086,173.084 230.250 C 172.811 230.419,172.666 230.119,172.684 229.418 C 172.708 228.452,172.752 228.414,173.047 229.102 C 173.272 229.626,173.392 228.824,173.410 226.660 C 173.426 224.754,173.278 223.438,173.047 223.438 C 172.832 223.438,172.656 223.174,172.656 222.852 C 172.656 222.172,175.186 222.009,175.590 222.663 C 175.910 223.181,176.563 222.768,176.563 222.047 C 176.563 221.424,168.591 221.184,168.213 221.796 M182.736 221.777 C 182.075 223.354,182.691 231.456,183.480 231.568 C 184.166 231.666,184.335 231.505,184.304 230.787 C 184.282 230.290,184.289 228.839,184.320 227.563 L 184.375 225.243 185.254 226.187 C 185.737 226.706,186.148 227.222,186.167 227.335 C 186.292 228.097,186.860 228.865,187.160 228.680 C 187.358 228.558,187.494 228.602,187.463 228.780 C 187.245 230.036,188.580 231.641,189.844 231.641 C 190.585 231.641,190.625 231.380,190.625 226.535 C 190.625 221.464,190.619 221.431,189.746 221.555 C 188.945 221.669,188.850 221.938,188.672 224.609 C 188.530 226.740,188.370 227.379,188.086 226.953 C 187.397 225.919,186.934 225.141,186.052 223.539 C 185.221 222.029,184.516 221.484,183.390 221.484 C 183.098 221.484,182.803 221.616,182.736 221.777 M228.191 226.563 L 228.061 231.641 230.241 231.641 C 231.441 231.641,232.422 231.481,232.422 231.287 C 232.422 231.092,232.733 231.014,233.114 231.114 C 233.534 231.223,234.187 230.877,234.774 230.233 C 235.307 229.649,235.524 229.296,235.258 229.449 C 234.933 229.637,234.850 229.530,235.006 229.124 C 235.134 228.792,235.395 228.617,235.588 228.736 C 235.780 228.855,235.938 227.808,235.938 226.410 C 235.938 224.394,235.796 223.788,235.254 223.484 C 234.878 223.274,234.638 222.958,234.722 222.781 C 235.020 222.150,232.965 221.496,230.664 221.490 L 228.320 221.485 228.191 226.563 M274.306 222.092 C 273.228 222.848,273.123 224.994,274.121 225.868 C 275.063 226.692,278.927 228.484,278.636 227.962 C 278.507 227.729,278.643 227.764,278.938 228.038 C 279.327 228.400,279.364 228.713,279.071 229.177 C 278.521 230.048,275.834 230.041,275.195 229.167 C 274.475 228.182,273.438 228.346,273.438 229.444 C 273.438 231.582,278.581 232.415,280.110 230.526 C 281.590 228.699,279.499 224.780,277.463 225.561 C 277.182 225.669,276.953 225.568,276.953 225.337 C 276.953 225.105,276.704 225.012,276.400 225.129 C 275.657 225.414,275.231 224.203,275.865 223.605 C 276.630 222.882,278.300 222.447,277.915 223.071 C 277.693 223.429,277.796 223.497,278.277 223.313 C 278.645 223.172,278.851 223.211,278.733 223.401 C 278.476 223.818,279.612 224.312,280.113 224.002 C 280.852 223.545,280.457 222.242,279.467 221.865 C 277.955 221.290,275.283 221.408,274.306 222.092 M291.602 221.875 C 291.469 222.090,291.546 222.266,291.774 222.266 C 292.299 222.266,292.318 223.702,291.797 224.023 C 291.266 224.351,291.299 228.403,291.834 228.734 C 292.070 228.880,292.190 229.491,292.102 230.093 C 291.969 230.996,292.104 231.218,292.875 231.365 C 293.542 231.492,293.689 231.423,293.389 231.123 C 292.822 230.557,292.857 229.174,293.454 228.577 C 293.840 228.191,293.828 228.024,293.394 227.756 C 293.009 227.518,293.142 227.437,293.848 227.479 C 294.397 227.512,294.766 227.671,294.666 227.832 C 294.567 227.993,294.671 228.125,294.899 228.125 C 295.126 228.125,295.313 228.385,295.313 228.702 C 295.313 229.019,295.752 229.567,296.289 229.919 C 296.826 230.271,297.266 230.786,297.266 231.063 C 297.266 231.639,298.692 231.395,299.090 230.752 C 299.234 230.518,299.149 230.466,298.888 230.627 C 298.492 230.872,298.373 230.653,298.464 229.847 C 298.478 229.720,298.170 229.356,297.780 229.037 C 297.390 228.718,297.334 228.584,297.656 228.739 C 297.979 228.894,297.847 228.637,297.363 228.167 C 296.455 227.285,296.187 226.723,296.878 227.150 C 297.094 227.284,297.376 227.119,297.505 226.785 C 297.633 226.450,297.881 226.265,298.056 226.373 C 298.526 226.663,298.909 224.483,298.603 223.264 C 298.211 221.700,292.420 220.552,291.602 221.875 M314.258 221.854 C 313.828 222.026,313.365 222.104,313.228 222.026 C 313.091 221.948,312.762 222.145,312.496 222.465 C 312.231 222.785,312.114 223.047,312.237 223.047 C 312.359 223.047,312.270 223.591,312.038 224.256 C 311.750 225.081,311.519 225.309,311.311 224.972 C 311.139 224.695,311.018 225.268,311.033 226.284 C 311.050 227.413,311.257 228.164,311.585 228.290 C 311.873 228.401,312.107 228.716,312.103 228.992 C 312.099 229.342,311.984 229.316,311.719 228.906 C 311.510 228.584,311.344 228.496,311.348 228.711 C 311.353 228.926,311.809 229.629,312.362 230.273 C 312.915 230.918,313.231 231.195,313.064 230.890 C 312.839 230.477,313.002 230.502,313.694 230.987 C 314.671 231.672,317.188 231.892,317.188 231.293 C 317.188 231.102,317.491 230.971,317.862 231.000 C 318.232 231.030,318.564 230.879,318.598 230.664 C 318.828 229.213,319.269 228.479,319.615 228.971 C 319.913 229.395,319.953 229.388,319.832 228.937 C 319.749 228.632,319.305 228.354,318.843 228.320 C 318.382 228.286,318.073 228.368,318.156 228.503 C 318.435 228.954,317.658 229.812,316.924 229.866 C 316.524 229.896,315.981 230.054,315.716 230.217 C 315.450 230.382,315.234 230.330,315.234 230.101 C 315.234 229.874,315.046 229.688,314.816 229.688 C 314.238 229.688,313.264 228.663,313.560 228.367 C 313.693 228.234,313.590 228.125,313.331 228.125 C 313.023 228.125,312.888 227.547,312.942 226.465 C 313.043 224.430,313.255 223.766,313.713 224.049 C 313.905 224.168,314.063 223.991,314.063 223.656 C 314.063 223.321,314.194 223.068,314.355 223.093 C 315.301 223.242,316.030 222.995,315.789 222.606 C 315.633 222.352,315.718 222.232,315.991 222.322 C 316.251 222.409,316.408 222.605,316.338 222.756 C 316.191 223.076,317.926 224.362,318.648 224.468 C 319.307 224.565,319.649 223.942,319.267 223.340 C 319.097 223.071,318.955 222.676,318.951 222.461 C 318.948 222.246,318.740 222.070,318.490 222.070 C 318.239 222.070,317.902 221.938,317.741 221.777 C 317.364 221.401,315.269 221.447,314.258 221.854 M322.006 221.756 C 321.540 221.846,321.061 222.178,320.940 222.493 C 320.765 222.949,320.873 222.984,321.467 222.665 C 321.878 222.445,322.676 222.266,323.239 222.266 L 324.265 222.266 324.144 226.892 C 324.033 231.139,324.080 231.503,324.707 231.338 C 325.308 231.181,325.391 230.618,325.391 226.712 L 325.391 222.266 326.539 222.266 C 327.171 222.266,327.799 222.444,327.934 222.663 C 328.294 223.246,328.909 222.729,328.652 222.058 C 328.437 221.497,324.296 221.309,322.006 221.756 M345.844 222.072 C 345.720 222.396,345.745 223.318,345.899 224.123 C 346.054 224.928,346.205 226.860,346.235 228.418 C 346.299 231.751,347.266 232.621,347.266 229.346 C 347.266 226.760,347.668 224.936,348.196 225.131 C 348.436 225.220,348.589 225.491,348.535 225.732 C 348.481 225.974,348.624 226.172,348.851 226.172 C 349.079 226.172,349.155 226.349,349.022 226.565 C 348.888 226.782,349.052 227.064,349.387 227.192 C 349.722 227.321,349.898 227.583,349.779 227.775 C 349.661 227.968,349.760 228.125,350.000 228.125 C 350.240 228.125,350.327 228.302,350.194 228.518 C 350.060 228.735,350.225 229.017,350.561 229.146 C 350.897 229.275,351.172 229.625,351.172 229.925 C 351.172 230.224,351.358 230.469,351.586 230.469 C 351.813 230.469,351.873 230.688,351.718 230.957 C 351.564 231.226,351.581 231.315,351.757 231.156 C 351.933 230.996,352.274 231.030,352.516 231.231 C 353.472 232.025,353.845 230.964,354.020 226.950 C 354.137 224.286,354.103 223.672,353.925 225.195 L 353.650 227.539 353.583 224.753 C 353.524 222.299,353.420 221.941,352.712 221.756 C 352.147 221.608,352.006 221.682,352.237 222.003 C 352.417 222.255,352.535 223.604,352.499 225.000 C 352.408 228.512,352.394 228.593,351.947 228.316 C 351.728 228.181,351.647 227.914,351.766 227.722 C 351.884 227.529,351.638 227.029,351.219 226.609 C 350.799 226.190,350.554 225.748,350.674 225.628 C 350.795 225.507,350.605 225.299,350.253 225.164 C 349.902 225.029,349.711 224.761,349.830 224.568 C 349.949 224.376,349.860 224.219,349.632 224.219 C 349.405 224.219,349.258 224.087,349.306 223.926 C 349.736 222.475,346.379 220.677,345.844 222.072 M301.681 226.144 C 301.611 230.387,301.997 231.752,303.081 231.082 C 303.290 230.953,303.572 231.025,303.707 231.244 C 303.842 231.462,304.547 231.641,305.273 231.641 C 306.000 231.641,306.705 231.462,306.840 231.244 C 306.975 231.025,307.237 230.940,307.422 231.055 C 307.607 231.169,307.886 231.057,308.041 230.805 C 308.232 230.496,308.146 230.450,307.775 230.661 C 307.473 230.833,307.608 230.604,308.073 230.151 C 308.539 229.697,308.860 229.012,308.787 228.628 C 308.713 228.244,308.640 226.567,308.624 224.902 C 308.600 222.485,308.476 221.875,308.008 221.875 C 307.532 221.875,307.421 222.518,307.416 225.293 C 307.413 227.173,307.240 228.975,307.031 229.297 C 306.823 229.619,306.650 229.731,306.647 229.545 C 306.643 229.359,306.201 229.495,305.664 229.847 C 305.055 230.246,304.688 230.321,304.688 230.045 C 304.688 229.803,304.445 229.697,304.148 229.811 C 303.483 230.066,303.135 228.255,303.129 224.512 C 303.126 222.258,303.025 221.875,302.438 221.875 C 301.830 221.875,301.744 222.359,301.681 226.144 M135.892 224.316 C 135.845 226.447,135.692 226.243,135.453 223.730 C 135.376 222.925,135.454 222.266,135.625 222.266 C 135.797 222.266,135.917 223.188,135.892 224.316 M140.675 224.311 C 140.977 224.877,140.958 225.203,140.604 225.530 C 140.230 225.875,140.194 225.843,140.447 225.391 C 140.728 224.889,140.682 224.880,140.125 225.332 C 139.768 225.621,138.899 225.988,138.195 226.147 L 136.914 226.436 136.824 224.407 L 136.733 222.378 138.497 222.958 C 139.467 223.278,140.447 223.887,140.675 224.311 M231.641 222.797 C 231.963 222.827,232.460 223.073,232.746 223.343 C 233.032 223.614,233.439 223.728,233.651 223.597 C 233.863 223.466,233.997 223.596,233.949 223.887 C 233.901 224.177,233.961 224.678,234.083 225.000 C 234.576 226.298,234.671 227.344,234.297 227.344 C 234.079 227.344,234.005 227.617,234.133 227.950 C 234.267 228.298,234.201 228.454,233.980 228.318 C 233.626 228.099,233.420 228.636,233.557 229.424 C 233.588 229.601,233.433 229.634,233.213 229.498 C 232.993 229.362,232.813 229.402,232.813 229.586 C 232.813 229.770,232.197 229.849,231.445 229.762 L 230.078 229.602 230.078 226.552 C 230.078 224.874,229.960 223.193,229.815 222.816 C 229.601 222.258,229.692 222.187,230.303 222.437 C 230.717 222.605,231.318 222.767,231.641 222.797 M295.588 222.770 C 295.847 222.779,295.969 222.933,295.858 223.112 C 295.748 223.291,295.918 223.438,296.237 223.438 C 297.044 223.438,297.202 224.671,296.489 225.397 C 295.655 226.245,293.750 225.923,293.750 224.933 C 293.750 224.515,293.574 224.281,293.359 224.414 C 293.130 224.556,292.969 224.144,292.969 223.418 C 292.969 222.259,293.037 222.199,294.043 222.468 C 294.634 222.625,295.329 222.762,295.588 222.770 M258.221 224.121 C 259.271 225.875,259.422 227.711,258.582 228.516 C 258.161 228.920,258.148 228.980,258.542 228.711 C 259.029 228.377,259.042 228.452,258.634 229.218 C 258.280 229.883,257.946 230.049,257.349 229.860 C 256.810 229.689,256.631 229.747,256.810 230.036 C 256.957 230.274,256.891 230.469,256.664 230.469 C 256.436 230.469,256.250 230.272,256.250 230.033 C 256.250 229.789,255.906 229.686,255.469 229.801 C 254.990 229.926,254.688 229.813,254.688 229.508 C 254.688 229.235,254.335 228.563,253.904 228.016 C 253.473 227.468,253.281 226.961,253.476 226.889 C 253.672 226.817,253.893 226.230,253.967 225.586 C 254.301 222.676,256.835 221.804,258.221 224.121 M340.023 223.073 C 339.823 223.397,340.336 223.599,341.088 223.492 C 341.236 223.471,341.354 223.758,341.352 224.129 C 341.350 224.501,341.530 225.508,341.753 226.367 C 342.118 227.772,342.071 228.002,341.294 228.647 C 340.819 229.042,340.693 229.228,341.016 229.060 C 341.491 228.814,341.514 228.865,341.136 229.332 C 340.620 229.971,337.500 229.886,337.500 229.233 C 337.500 229.028,337.362 228.946,337.193 229.050 C 336.850 229.262,336.744 228.758,336.577 226.092 C 336.513 225.082,336.576 224.326,336.716 224.412 C 337.016 224.598,338.294 223.190,338.048 222.944 C 337.956 222.851,338.413 222.760,339.064 222.742 C 339.715 222.723,340.147 222.872,340.023 223.073 M284.891 225.391 C 284.891 226.787,284.962 227.358,285.048 226.660 C 285.135 225.962,285.135 224.819,285.048 224.121 C 284.962 223.423,284.891 223.994,284.891 225.391 M211.790 225.567 C 211.723 225.942,211.949 226.560,212.293 226.940 C 212.879 227.588,212.850 227.620,211.830 227.456 C 209.800 227.128,209.647 227.016,210.323 226.340 C 210.661 226.002,210.938 225.460,210.938 225.135 C 210.938 224.810,211.157 224.621,211.426 224.715 C 211.694 224.809,211.858 225.192,211.790 225.567 M148.354 226.598 L 149.136 228.001 148.195 227.821 C 146.998 227.592,146.739 227.158,147.053 225.908 C 147.342 224.756,147.322 224.745,148.354 226.598 M119.141 225.977 C 119.141 226.337,118.803 226.545,118.262 226.517 C 117.600 226.483,117.552 226.428,118.066 226.293 C 118.442 226.195,118.750 225.952,118.750 225.753 C 118.750 225.554,118.838 225.391,118.945 225.391 C 119.053 225.391,119.141 225.654,119.141 225.977 M306.739 226.758 C 306.743 227.617,306.823 227.923,306.917 227.437 C 307.010 226.951,307.007 226.248,306.909 225.874 C 306.811 225.501,306.735 225.898,306.739 226.758 M325.888 227.734 C 325.888 228.701,325.964 229.097,326.057 228.613 C 326.150 228.130,326.150 227.339,326.057 226.855 C 325.964 226.372,325.888 226.768,325.888 227.734 M135.823 230.176 C 135.729 230.659,135.653 230.264,135.653 229.297 C 135.653 228.330,135.729 227.935,135.823 228.418 C 135.916 228.901,135.916 229.692,135.823 230.176 " stroke="none" fill="#fcfcfc" fill-rule="evenodd"></path><path id="path1" d="M352.388 221.626 C 352.031 222.057,352.132 222.123,352.922 221.972 C 353.458 221.870,353.801 221.630,353.683 221.440 C 353.377 220.944,352.897 221.013,352.388 221.626 M282.155 222.070 C 282.214 222.658,282.570 222.884,283.594 222.981 C 284.342 223.052,285.085 223.316,285.245 223.567 C 285.451 223.891,285.537 223.896,285.541 223.583 C 285.551 222.820,284.418 222.166,283.418 222.357 C 282.763 222.483,282.396 222.342,282.267 221.915 C 282.146 221.517,282.105 221.574,282.155 222.070 M135.638 223.438 C 135.638 224.189,135.718 224.497,135.816 224.121 C 135.914 223.745,135.914 223.130,135.816 222.754 C 135.718 222.378,135.638 222.686,135.638 223.438 M169.325 222.673 C 169.198 222.879,169.535 223.047,170.073 223.047 C 170.949 223.047,171.067 223.230,171.206 224.807 L 171.361 226.568 171.325 224.752 C 171.289 222.955,169.988 221.602,169.325 222.673 M172.656 222.656 C 172.656 222.871,173.096 223.047,173.633 223.047 C 174.170 223.047,174.609 222.871,174.609 222.656 C 174.609 222.441,174.170 222.266,173.633 222.266 C 173.096 222.266,172.656 222.441,172.656 222.656 M287.305 222.656 C 287.437 222.871,288.019 223.044,288.597 223.041 C 289.419 223.036,289.521 222.952,289.063 222.656 C 288.291 222.157,286.996 222.157,287.305 222.656 M308.722 224.805 C 308.724 226.309,308.794 226.876,308.879 226.066 C 308.963 225.255,308.962 224.025,308.876 223.331 C 308.789 222.638,308.720 223.301,308.722 224.805 M321.676 222.663 C 321.574 222.827,322.085 223.031,322.810 223.116 C 323.701 223.220,324.074 223.123,323.956 222.817 C 323.763 222.313,321.967 222.192,321.676 222.663 M306.926 223.926 C 306.819 224.624,306.881 225.459,307.065 225.781 C 307.285 226.169,307.402 225.738,307.410 224.512 C 307.424 222.363,307.205 222.099,306.926 223.926 M284.971 228.363 C 284.678 231.100,284.948 231.813,286.189 231.575 C 286.723 231.472,286.936 231.048,286.996 229.962 C 287.049 229.011,286.932 228.579,286.665 228.744 C 286.439 228.884,286.328 229.513,286.421 230.140 C 286.551 231.026,286.450 231.254,285.970 231.156 C 285.465 231.052,285.374 230.549,285.473 228.405 C 285.630 225.041,285.329 225.015,284.971 228.363 M345.801 228.547 C 345.756 230.053,345.864 231.197,346.040 231.088 C 346.429 230.848,346.513 226.950,346.145 226.283 C 346.000 226.021,345.845 227.040,345.801 228.547 M325.502 229.102 C 325.505 230.176,325.581 230.569,325.671 229.975 C 325.761 229.381,325.758 228.502,325.666 228.022 C 325.573 227.542,325.499 228.027,325.502 229.102 M171.192 229.883 C 171.197 230.742,171.277 231.048,171.370 230.562 C 171.463 230.076,171.460 229.373,171.362 228.999 C 171.264 228.626,171.188 229.023,171.192 229.883 M293.240 229.590 C 293.124 230.181,293.191 230.831,293.389 231.035 C 293.612 231.264,293.750 230.852,293.750 229.961 C 293.750 228.250,293.533 228.093,293.240 229.590 M330.315 229.134 C 329.981 230.006,330.021 231.169,330.394 231.399 C 330.567 231.506,330.750 230.901,330.800 230.055 C 330.896 228.439,330.714 228.094,330.315 229.134 M323.926 230.176 C 324.004 231.187,324.203 231.456,324.908 231.497 C 325.598 231.538,325.625 231.511,325.029 231.375 C 324.556 231.268,324.181 230.764,324.046 230.054 C 323.839 228.963,323.833 228.969,323.926 230.176 M291.555 230.255 C 291.259 231.025,291.702 231.650,292.504 231.595 C 293.099 231.554,293.101 231.533,292.522 231.379 C 292.107 231.269,291.951 230.941,292.080 230.448 C 292.310 229.569,291.879 229.410,291.555 230.255 " stroke="none" fill="#ececec" fill-rule="evenodd"></path><path id="path2" d="M170.508 222.603 C 171.196 222.889,171.316 223.413,171.513 226.991 L 171.736 231.055 171.708 226.758 C 171.680 222.468,171.678 222.461,170.703 222.370 C 169.845 222.290,169.821 222.318,170.508 222.603 M325.391 222.815 C 325.391 223.179,325.665 223.293,326.205 223.151 C 326.824 222.990,326.894 222.859,326.498 222.608 C 325.739 222.127,325.391 222.192,325.391 222.815 M285.247 229.688 C 285.247 230.439,285.327 230.747,285.426 230.371 C 285.524 229.995,285.524 229.380,285.426 229.004 C 285.327 228.628,285.247 228.936,285.247 229.688 " stroke="none" fill="#e0e0e0" fill-rule="evenodd"></path><path id="path3" d="M309.924 176.758 C 309.924 180.195,309.984 181.549,310.057 179.767 C 310.129 177.984,310.129 175.171,310.056 173.517 C 309.983 171.862,309.923 173.320,309.924 176.758 M134.894 177.148 C 134.896 178.652,134.966 179.220,135.051 178.409 C 135.135 177.599,135.134 176.368,135.048 175.675 C 134.961 174.981,134.892 175.645,134.894 177.148 M183.749 187.891 C 183.749 191.006,183.810 192.280,183.884 190.723 C 183.958 189.165,183.958 186.616,183.884 185.059 C 183.810 183.501,183.749 184.775,183.749 187.891 M134.856 184.375 C 134.856 185.127,134.937 185.435,135.035 185.059 C 135.133 184.683,135.133 184.067,135.035 183.691 C 134.937 183.315,134.856 183.623,134.856 184.375 M134.925 192.383 C 134.925 196.035,134.984 197.582,135.056 195.820 C 135.128 194.058,135.129 191.070,135.057 189.179 C 134.985 187.289,134.926 188.730,134.925 192.383 M309.872 187.891 C 309.872 188.857,309.948 189.253,310.041 188.770 C 310.134 188.286,310.134 187.495,310.041 187.012 C 309.948 186.528,309.872 186.924,309.872 187.891 M141.179 194.141 C 141.179 198.330,141.237 200.044,141.307 197.949 C 141.377 195.854,141.377 192.427,141.307 190.332 C 141.237 188.237,141.179 189.951,141.179 194.141 M55.642 200.000 C 55.642 206.338,55.695 208.931,55.761 205.762 C 55.827 202.593,55.827 197.407,55.761 194.238 C 55.695 191.069,55.642 193.662,55.642 200.000 M309.877 193.945 C 309.880 195.020,309.956 195.413,310.046 194.819 C 310.136 194.225,310.133 193.346,310.041 192.866 C 309.948 192.385,309.874 192.871,309.877 193.945 M61.465 195.703 C 61.465 197.529,61.532 198.276,61.614 197.363 C 61.696 196.450,61.696 194.956,61.614 194.043 C 61.532 193.130,61.465 193.877,61.465 195.703 M61.435 201.563 C 61.435 202.529,61.511 202.925,61.604 202.441 C 61.697 201.958,61.697 201.167,61.604 200.684 C 61.511 200.200,61.435 200.596,61.435 201.563 M134.877 202.539 C 134.880 203.613,134.956 204.006,135.046 203.413 C 135.136 202.819,135.133 201.940,135.041 201.459 C 134.948 200.979,134.874 201.465,134.877 202.539 M61.453 211.328 C 61.453 212.725,61.524 213.296,61.611 212.598 C 61.697 211.899,61.697 210.757,61.611 210.059 C 61.524 209.360,61.453 209.932,61.453 211.328 M55.594 219.922 C 55.594 221.318,55.665 221.890,55.751 221.191 C 55.838 220.493,55.838 219.351,55.751 218.652 C 55.665 217.954,55.594 218.525,55.594 219.922 M306.793 222.433 C 306.675 222.739,306.644 223.398,306.724 223.897 C 306.831 224.565,306.922 224.417,307.067 223.340 C 307.272 221.823,307.164 221.466,306.793 222.433 M351.953 223.633 C 351.953 224.385,352.022 225.000,352.106 225.000 C 352.190 225.000,352.330 224.385,352.418 223.633 C 352.506 222.881,352.437 222.266,352.265 222.266 C 352.094 222.266,351.953 222.881,351.953 223.633 M353.569 224.879 C 353.540 226.209,353.647 227.379,353.809 227.479 C 353.970 227.578,354.050 226.842,353.987 225.842 C 353.793 222.742,353.624 222.355,353.569 224.879 M199.169 223.535 C 199.761 224.290,200.605 224.429,200.974 223.833 C 201.111 223.610,200.953 223.546,200.601 223.681 C 200.265 223.810,199.685 223.676,199.311 223.384 C 198.697 222.902,198.684 222.917,199.169 223.535 M286.425 226.043 C 286.361 227.913,286.466 228.867,286.718 228.712 C 287.169 228.433,287.257 223.572,286.816 223.308 C 286.655 223.211,286.479 224.442,286.425 226.043 M323.959 226.172 C 323.959 227.783,324.028 228.442,324.113 227.637 C 324.197 226.831,324.197 225.513,324.113 224.707 C 324.028 223.901,323.959 224.561,323.959 226.172 M351.858 227.148 C 351.755 227.686,351.822 228.125,352.007 228.125 C 352.192 228.125,352.344 227.964,352.344 227.766 C 352.344 227.569,352.450 227.130,352.581 226.790 C 352.711 226.450,352.644 226.172,352.431 226.172 C 352.218 226.172,351.960 226.611,351.858 227.148 M135.645 229.492 C 135.650 230.352,135.730 230.657,135.823 230.171 C 135.917 229.685,135.913 228.982,135.815 228.609 C 135.717 228.235,135.641 228.633,135.645 229.492 M153.516 229.906 C 153.516 230.670,153.680 231.195,153.880 231.071 C 154.332 230.792,154.302 228.516,153.847 228.516 C 153.665 228.516,153.516 229.141,153.516 229.906 M347.235 230.175 C 347.118 231.015,347.178 231.494,347.375 231.297 C 347.563 231.109,347.654 230.450,347.577 229.833 C 347.449 228.800,347.421 228.827,347.235 230.175 " stroke="none" fill="#f4f5f4" fill-rule="evenodd"></path><path id="path4" d="M252.825 182.813 C 252.825 183.564,252.905 183.872,253.004 183.496 C 253.102 183.120,253.102 182.505,253.004 182.129 C 252.905 181.753,252.825 182.061,252.825 182.813 M55.594 184.766 C 55.594 186.162,55.665 186.733,55.751 186.035 C 55.838 185.337,55.838 184.194,55.751 183.496 C 55.665 182.798,55.594 183.369,55.594 184.766 M248.528 191.016 C 248.528 191.768,248.609 192.075,248.707 191.699 C 248.805 191.323,248.805 190.708,248.707 190.332 C 248.609 189.956,248.528 190.264,248.528 191.016 " stroke="none" fill="#fcf4f8" fill-rule="evenodd"></path></g></svg>