<svg id="svg" version="1.1" xmlns="http://www.w3.org/2000/svg" xmlns:xlink="http://www.w3.org/1999/xlink" width="400" height="400" viewBox="0, 0, 400,400"><g id="svgg"><path id="path0" d="M0.000 200.000 L 0.000 400.000 200.000 400.000 L 400.000 400.000 400.000 200.000 L 400.000 0.000 200.000 0.000 L 0.000 0.000 0.000 200.000 M90.768 153.393 C 92.086 154.615,97.031 159.130,101.758 163.426 C 106.484 167.722,112.593 173.342,115.332 175.916 L 120.313 180.594 120.313 204.118 L 120.313 227.642 102.637 227.909 C 92.915 228.056,78.299 228.121,70.157 228.053 L 55.353 227.930 55.204 204.492 L 55.055 181.055 58.484 177.980 C 62.229 174.623,81.471 157.016,85.308 153.436 C 88.232 150.708,87.875 150.711,90.768 153.393 M83.541 163.999 C 81.042 166.290,75.201 171.592,70.562 175.781 L 62.127 183.398 62.118 202.441 L 62.109 221.484 87.891 221.484 L 113.672 221.484 113.672 202.357 L 113.672 183.229 110.645 180.348 C 108.979 178.764,104.805 174.935,101.368 171.839 C 97.931 168.744,93.976 165.155,92.579 163.865 C 91.182 162.575,89.600 161.141,89.063 160.677 L 88.086 159.835 83.541 163.999 M346.396 169.877 C 350.365 171.901,353.019 178.243,350.098 178.719 C 349.292 178.850,347.884 179.101,346.968 179.276 C 345.384 179.579,345.292 179.545,345.058 178.567 C 344.120 174.644,339.650 173.329,337.646 176.387 C 336.163 178.650,337.473 180.678,343.193 184.974 C 350.814 190.698,353.300 195.166,351.964 200.737 C 351.004 204.737,348.468 206.959,343.924 207.779 C 337.192 208.994,331.532 205.495,330.129 199.251 C 329.693 197.311,329.563 197.398,333.402 197.066 L 336.523 196.796 337.222 198.787 C 338.250 201.714,340.972 202.804,343.714 201.386 C 347.271 199.546,345.734 195.402,339.901 191.104 C 331.787 185.125,329.453 181.038,331.038 175.585 C 332.731 169.763,340.508 166.873,346.396 169.877 M149.724 170.221 C 155.877 172.994,157.633 178.890,156.686 193.602 C 155.947 205.094,152.091 208.119,138.672 207.735 L 134.570 207.617 134.581 204.590 C 134.587 202.925,134.631 194.247,134.679 185.306 L 134.766 169.050 141.309 169.214 C 146.955 169.354,148.108 169.492,149.724 170.221 M169.141 183.966 C 169.141 201.404,169.213 201.719,173.242 201.719 C 177.452 201.719,177.520 201.445,177.654 184.082 L 177.769 169.141 181.092 169.141 L 184.415 169.141 184.298 185.059 L 184.180 200.977 183.008 203.113 C 179.468 209.567,168.070 209.834,163.799 203.563 C 162.304 201.368,162.109 199.086,162.109 183.770 L 162.109 169.141 165.625 169.141 L 169.141 169.141 169.141 183.966 M203.985 169.579 C 212.755 171.438,216.191 183.143,209.931 189.835 C 207.787 192.128,207.700 191.257,210.937 199.914 C 212.441 203.936,213.672 207.314,213.673 207.422 C 213.673 207.529,212.070 207.529,210.111 207.422 L 206.549 207.227 203.896 200.195 L 201.243 193.164 199.450 193.045 L 197.656 192.926 197.656 200.272 L 197.656 207.617 194.141 207.551 C 192.207 207.515,190.625 207.384,190.625 207.259 C 190.625 207.134,190.625 198.506,190.625 188.086 L 190.625 169.141 196.270 169.141 C 199.374 169.141,202.846 169.338,203.985 169.579 M234.726 170.903 C 235.210 172.826,241.057 200.308,241.789 204.102 C 242.038 205.391,242.315 206.709,242.405 207.031 C 242.585 207.672,236.101 207.777,235.534 207.142 C 235.384 206.974,235.044 205.441,234.778 203.736 C 234.085 199.292,234.458 199.609,229.924 199.609 L 225.947 199.609 225.297 203.367 C 224.940 205.433,224.581 207.189,224.501 207.270 C 224.082 207.688,217.188 207.842,217.188 207.432 C 217.188 207.188,218.081 202.911,219.174 197.928 C 222.966 180.631,223.472 178.301,224.231 174.609 C 224.650 172.568,225.086 170.503,225.200 170.020 C 225.398 169.172,225.563 169.141,229.844 169.141 L 234.282 169.141 234.726 170.903 M254.297 176.953 L 254.297 184.766 258.398 184.766 L 262.500 184.766 262.500 176.953 L 262.500 169.141 265.820 169.141 L 269.141 169.141 269.139 188.379 L 269.137 207.617 265.916 207.617 L 262.695 207.617 262.590 199.316 L 262.484 191.016 258.391 191.016 L 254.297 191.016 254.297 199.430 L 254.297 207.844 250.781 207.780 L 247.266 207.716 247.266 188.428 L 247.266 169.141 250.781 169.141 L 254.297 169.141 254.297 176.953 M291.567 169.824 C 291.760 170.445,299.127 205.717,299.328 206.985 C 299.404 207.461,292.743 207.717,292.281 207.255 C 292.218 207.192,291.864 205.421,291.494 203.320 L 290.820 199.499 286.922 199.579 C 282.429 199.671,282.695 199.445,282.025 203.754 C 281.741 205.576,281.337 207.173,281.126 207.303 C 280.558 207.654,274.013 207.507,274.087 207.146 C 275.024 202.565,275.539 200.178,276.199 197.368 C 276.640 195.486,277.420 192.012,277.931 189.648 C 278.442 187.285,279.661 181.766,280.641 177.384 C 281.620 173.001,282.422 169.354,282.422 169.278 C 282.422 168.678,291.376 169.213,291.567 169.824 M310.156 183.340 C 310.156 200.827,310.328 201.563,314.409 201.563 C 318.611 201.563,318.745 200.997,318.748 183.301 L 318.750 169.141 322.070 169.141 L 325.391 169.141 325.391 184.397 C 325.391 194.691,325.243 200.240,324.937 201.456 C 322.770 210.062,307.554 210.446,304.226 201.979 C 303.384 199.837,302.547 171.602,303.269 169.719 C 303.441 169.271,304.241 169.141,306.824 169.141 L 310.156 169.141 310.156 183.340 M141.406 188.209 L 141.406 201.526 143.457 201.306 C 149.251 200.686,149.805 199.567,149.805 188.477 C 149.805 177.219,149.148 175.802,143.625 175.153 L 141.406 174.892 141.406 188.209 M197.656 181.250 L 197.656 187.109 199.817 187.109 C 204.313 187.109,206.284 184.861,205.693 180.407 C 205.204 176.725,203.668 175.395,199.902 175.392 L 197.656 175.391 197.656 181.250 M229.320 180.564 C 229.049 182.123,228.406 185.549,227.890 188.177 C 227.375 190.805,226.953 193.047,226.953 193.158 C 226.953 193.269,228.285 193.359,229.914 193.359 L 232.875 193.359 232.659 192.285 C 232.540 191.694,231.894 188.223,231.222 184.570 C 230.550 180.918,229.958 177.885,229.907 177.830 C 229.855 177.775,229.592 179.005,229.320 180.564 M285.433 185.080 C 284.631 189.096,283.977 192.603,283.980 192.871 C 283.983 193.218,284.840 193.359,286.948 193.359 L 289.912 193.359 289.645 191.699 C 289.188 188.864,287.100 177.986,286.993 177.878 C 286.937 177.822,286.235 181.063,285.433 185.080 M141.549 221.903 C 144.124 223.929,142.340 227.734,138.815 227.734 L 137.109 227.734 137.109 229.910 C 137.109 231.943,137.052 232.077,136.230 231.961 C 135.374 231.839,135.349 231.700,135.243 226.465 L 135.134 221.094 137.827 221.094 C 139.960 221.094,140.734 221.262,141.549 221.903 M150.111 225.488 C 152.242 232.133,152.228 232.031,151.009 232.031 C 150.179 232.031,149.935 231.805,149.746 230.859 C 149.525 229.753,149.407 229.688,147.638 229.688 C 145.875 229.688,145.750 229.756,145.508 230.859 C 145.295 231.829,145.057 232.031,144.130 232.031 C 143.082 232.031,143.032 231.962,143.365 230.957 C 143.560 230.366,144.351 227.905,145.122 225.488 C 146.465 221.276,146.569 221.094,147.612 221.094 C 148.655 221.094,148.760 221.278,150.111 225.488 M155.859 226.590 C 155.859 232.066,155.856 232.085,154.980 231.961 C 154.124 231.839,154.099 231.700,153.993 226.465 L 153.884 221.094 154.872 221.094 L 155.859 221.094 155.859 226.590 M162.648 224.704 L 164.844 228.315 164.844 224.677 C 164.844 221.194,164.879 221.045,165.670 221.164 C 166.469 221.285,166.495 221.468,166.431 226.550 C 166.344 233.525,166.074 233.635,162.598 228.105 L 160.547 224.842 160.547 228.437 C 160.547 232.010,160.541 232.031,159.570 232.031 L 158.594 232.031 158.594 226.563 L 158.594 221.094 159.523 221.094 C 160.277 221.094,160.868 221.777,162.648 224.704 M176.563 222.070 C 176.563 222.948,176.405 223.047,175.013 223.047 L 173.463 223.047 173.353 227.441 C 173.247 231.663,173.208 231.841,172.363 231.961 C 171.495 232.084,171.484 232.030,171.484 227.566 L 171.484 223.047 169.727 223.047 C 168.112 223.047,167.969 222.967,167.969 222.070 L 167.969 221.094 172.266 221.094 L 176.563 221.094 176.563 222.070 M180.078 226.590 C 180.078 232.066,180.075 232.085,179.199 231.961 C 178.343 231.839,178.318 231.700,178.212 226.465 L 178.103 221.094 179.091 221.094 L 180.078 221.094 180.078 226.590 M186.589 224.294 L 188.477 227.494 188.590 224.294 C 188.700 221.186,188.731 221.094,189.664 221.094 L 190.625 221.094 190.625 226.563 C 190.625 233.522,190.170 233.792,187.050 228.688 C 184.508 224.527,184.543 224.543,184.703 227.606 C 184.873 230.868,184.580 232.031,183.586 232.031 C 182.852 232.031,182.813 231.753,182.813 226.563 L 182.813 221.094 183.757 221.094 C 184.526 221.094,185.054 221.690,186.589 224.294 M200.421 222.236 C 201.741 223.556,201.835 224.046,200.868 224.563 C 200.337 224.847,199.958 224.712,199.264 223.991 C 198.108 222.790,197.092 222.794,195.881 224.006 C 193.528 226.358,195.782 230.915,198.651 229.608 C 199.985 229.000,200.198 228.125,199.011 228.125 C 198.243 228.125,198.047 227.926,198.047 227.148 C 198.047 226.234,198.174 226.172,200.051 226.172 L 202.056 226.172 201.844 227.749 C 201.002 234.033,192.975 232.854,192.970 226.445 C 192.967 221.831,197.471 219.286,200.421 222.236 M213.783 225.488 C 215.867 231.985,215.869 232.001,214.813 231.922 C 214.238 231.878,213.785 231.476,213.519 230.771 C 212.876 229.067,209.559 229.134,209.180 230.859 C 208.980 231.768,208.710 232.031,207.977 232.031 C 206.755 232.031,206.752 232.052,208.635 226.134 C 210.878 219.086,211.696 218.983,213.783 225.488 M220.190 222.754 C 220.772 223.667,221.738 225.293,222.336 226.367 L 223.423 228.320 223.430 224.707 C 223.437 221.115,223.443 221.094,224.414 221.094 L 225.391 221.094 225.391 226.560 C 225.391 233.489,224.893 233.715,221.500 228.328 L 219.336 224.893 219.223 228.487 C 219.115 231.945,219.078 232.077,218.247 231.959 C 217.409 231.840,217.379 231.671,217.274 226.465 L 217.165 221.094 218.148 221.094 C 218.878 221.094,219.404 221.521,220.190 222.754 M234.759 222.522 C 238.106 226.267,235.846 231.277,230.566 231.819 L 228.125 232.070 228.125 226.538 L 228.125 221.006 230.905 221.163 C 233.422 221.305,233.787 221.433,234.759 222.522 M248.971 221.903 C 250.182 222.856,250.285 223.648,249.268 224.192 C 248.704 224.494,248.376 224.408,247.840 223.816 C 245.471 221.197,242.246 226.348,244.531 229.101 C 245.159 229.859,247.419 229.859,248.047 229.102 C 248.641 228.386,248.820 228.387,249.774 229.108 C 251.363 230.310,247.089 232.539,244.838 231.683 C 241.278 230.329,240.598 224.587,243.689 221.975 C 245.056 220.819,247.550 220.786,248.971 221.903 M258.390 221.551 C 261.041 222.760,261.872 228.031,259.764 230.275 C 256.795 233.436,252.631 231.891,251.932 227.370 C 251.238 222.880,254.619 219.833,258.390 221.551 M267.166 224.609 C 268.320 226.543,269.281 228.125,269.300 228.126 C 269.320 228.126,269.280 226.544,269.211 224.610 L 269.085 221.094 270.089 221.094 L 271.094 221.094 271.094 226.172 C 271.094 228.965,271.094 231.382,271.094 231.543 C 271.094 232.977,269.292 231.412,267.160 228.125 C 265.664 225.820,264.851 224.839,265.012 225.535 C 265.556 227.878,264.835 232.086,263.912 231.954 C 263.123 231.841,263.081 231.596,262.977 226.465 L 262.869 221.094 263.968 221.094 C 264.936 221.094,265.317 221.512,267.166 224.609 M279.397 221.512 C 280.967 222.227,281.352 223.251,280.270 223.830 C 279.488 224.248,279.245 224.223,278.687 223.664 C 277.777 222.754,275.977 222.993,275.977 224.023 C 275.977 224.612,276.432 224.949,277.821 225.391 C 280.344 226.192,281.250 227.050,281.250 228.639 C 281.250 231.893,276.062 233.153,273.648 230.485 C 272.556 229.279,274.183 228.615,276.055 229.503 C 277.151 230.023,277.638 230.069,278.396 229.724 C 279.942 229.019,279.356 228.079,276.847 227.243 C 275.165 226.683,274.446 226.208,274.015 225.375 C 272.518 222.479,276.014 219.971,279.397 221.512 M290.234 222.070 C 290.234 222.949,290.078 223.047,288.672 223.047 L 287.109 223.047 287.109 227.565 L 287.109 232.083 286.035 231.960 L 284.961 231.836 284.850 227.441 L 284.740 223.047 283.190 223.047 C 281.798 223.047,281.641 222.948,281.641 222.070 L 281.641 221.094 285.938 221.094 L 290.234 221.094 290.234 222.070 M298.480 222.221 C 299.806 223.859,298.987 227.344,297.276 227.344 C 297.066 227.344,297.418 228.230,298.057 229.314 C 299.475 231.719,299.494 232.031,298.221 232.031 C 297.390 232.031,297.057 231.670,296.239 229.883 C 294.887 226.930,293.839 226.890,293.673 229.785 C 293.570 231.572,293.441 231.852,292.676 231.961 C 291.800 232.085,291.797 232.067,291.797 226.547 L 291.797 221.008 294.769 221.158 C 297.311 221.287,297.848 221.440,298.480 222.221 M303.516 224.972 C 303.516 229.837,304.323 231.033,306.554 229.470 C 307.352 228.911,307.422 228.549,307.422 224.978 C 307.422 221.095,307.422 221.094,308.398 221.094 C 310.694 221.094,309.506 230.615,307.086 231.618 C 303.354 233.164,301.563 231.126,301.563 225.338 L 301.563 221.094 302.539 221.094 C 303.515 221.094,303.516 221.096,303.516 224.972 M318.720 222.105 C 320.144 223.304,320.177 223.481,319.099 224.154 C 318.385 224.600,318.163 224.561,317.414 223.857 C 316.246 222.760,315.065 222.838,314.091 224.076 C 311.840 226.937,314.505 231.342,317.256 229.308 C 318.372 228.483,320.123 228.877,319.795 229.880 C 318.826 232.842,313.216 232.278,311.881 229.084 C 309.651 223.744,314.630 218.663,318.720 222.105 M328.906 222.070 C 328.906 222.948,328.749 223.047,327.357 223.047 L 325.807 223.047 325.696 227.441 C 325.590 231.663,325.551 231.841,324.707 231.961 C 323.839 232.084,323.828 232.030,323.828 227.566 L 323.828 223.047 322.289 223.047 C 320.673 223.047,320.097 222.610,320.461 221.661 C 320.632 221.215,321.556 221.094,324.792 221.094 L 328.906 221.094 328.906 222.070 M332.434 221.582 C 332.427 221.743,332.422 224.160,332.422 226.953 L 332.422 232.031 331.445 232.031 L 330.469 232.031 330.469 226.537 L 330.469 221.042 331.457 221.165 C 332.001 221.233,332.441 221.421,332.434 221.582 M341.419 221.686 C 342.970 222.488,343.885 224.388,343.834 226.703 C 343.682 233.664,334.763 233.609,334.767 226.647 C 334.770 222.174,337.879 219.856,341.419 221.686 M349.392 223.691 C 350.264 225.013,351.186 226.419,351.442 226.816 C 351.823 227.409,351.911 226.959,351.930 224.316 C 351.953 221.145,351.969 221.094,352.930 221.094 L 353.906 221.094 353.906 226.563 C 353.906 233.477,353.550 233.667,350.238 228.516 C 348.995 226.582,347.949 225.000,347.915 224.999 C 347.880 224.999,347.908 226.581,347.977 228.515 L 348.102 232.031 346.903 232.031 L 345.703 232.031 345.703 226.537 L 345.703 221.042 346.756 221.165 C 347.552 221.259,348.193 221.873,349.392 223.691 M137.109 224.390 C 137.109 225.754,137.140 225.781,138.684 225.781 C 141.421 225.781,141.285 223.355,138.535 223.121 C 137.139 223.002,137.109 223.029,137.109 224.390 M230.078 226.367 L 230.078 229.688 231.250 229.688 C 233.185 229.688,234.111 228.412,233.885 226.061 C 233.674 223.860,232.943 223.047,231.175 223.047 L 230.078 223.047 230.078 226.367 M254.688 223.828 C 252.856 225.659,254.047 229.688,256.420 229.688 C 258.143 229.688,258.789 228.809,258.789 226.468 C 258.789 223.505,256.490 222.025,254.688 223.828 M293.750 224.414 C 293.750 225.745,293.790 225.781,295.289 225.781 C 297.032 225.781,297.445 225.376,297.100 224.001 C 296.661 222.252,293.750 222.610,293.750 224.414 M337.678 224.006 C 335.751 225.932,336.804 229.785,339.258 229.785 C 341.772 229.785,342.862 225.504,340.768 223.856 C 339.434 222.808,338.847 222.836,337.678 224.006 M147.091 225.223 C 146.947 225.990,146.733 226.869,146.615 227.176 C 146.459 227.582,146.714 227.734,147.547 227.734 L 148.693 227.734 148.293 225.781 C 147.820 223.476,147.451 223.304,147.091 225.223 M210.667 225.977 L 210.265 227.734 211.424 227.734 C 212.369 227.734,212.535 227.608,212.319 227.051 C 212.174 226.675,211.957 225.884,211.838 225.293 C 211.524 223.738,211.126 223.970,210.667 225.977 " stroke="none" fill="#fbf9f4" fill-rule="evenodd"></path><path id="path1" d="M84.303 154.596 C 82.302 156.490,77.588 160.836,73.828 164.253 C 70.068 167.670,64.399 172.847,61.230 175.756 L 55.469 181.047 55.469 204.349 C 55.469 222.656,55.573 227.681,55.957 227.790 C 56.226 227.867,70.728 227.880,88.184 227.819 L 119.922 227.708 119.922 204.146 L 119.922 180.584 116.309 177.103 C 113.198 174.106,94.520 156.986,89.605 152.626 L 87.942 151.151 84.303 154.596 M90.485 161.638 C 91.590 162.649,96.072 166.722,100.446 170.689 C 104.820 174.656,109.673 179.124,111.230 180.618 L 114.063 183.335 114.063 202.383 C 114.063 220.191,114.018 221.444,113.379 221.624 C 113.003 221.730,101.270 221.786,87.305 221.748 L 61.914 221.680 61.813 202.708 L 61.711 183.737 66.110 179.662 C 68.529 177.420,71.387 174.788,72.461 173.813 C 73.535 172.837,77.314 169.410,80.859 166.195 C 84.404 162.981,87.363 160.220,87.435 160.059 C 87.712 159.434,88.553 159.869,90.485 161.638 M134.766 188.265 L 134.766 207.512 141.333 207.361 C 153.803 207.075,156.103 204.601,156.529 191.016 C 157.088 173.183,154.669 169.802,140.968 169.262 L 134.766 169.018 134.766 188.265 M180.762 169.450 L 177.734 169.564 177.734 184.385 L 177.734 199.206 176.647 200.423 C 175.268 201.966,172.471 202.433,170.873 201.387 C 168.844 200.057,168.750 199.275,168.750 183.802 L 168.750 169.531 165.625 169.531 L 162.500 169.531 162.407 181.738 C 162.274 199.363,162.319 200.169,163.593 202.719 C 167.122 209.787,179.802 209.652,183.071 202.510 L 184.017 200.444 184.050 184.972 C 184.069 176.463,184.017 169.463,183.936 169.418 C 183.855 169.373,182.427 169.387,180.762 169.450 M190.625 188.227 L 190.625 207.422 194.043 207.422 L 197.461 207.423 197.347 200.196 L 197.232 192.969 199.300 192.969 L 201.367 192.969 204.097 200.195 L 206.826 207.422 210.194 207.422 L 213.562 207.422 210.639 199.668 L 207.716 191.913 209.470 190.160 C 212.927 186.703,213.770 180.096,211.374 175.230 C 209.126 170.662,206.493 169.568,196.973 169.246 L 190.625 169.031 190.625 188.227 M225.639 169.446 C 225.535 169.613,225.011 171.855,224.474 174.426 C 223.352 179.798,218.556 201.820,217.774 205.190 L 217.250 207.450 220.808 207.338 L 224.366 207.227 224.635 206.055 C 224.784 205.410,225.119 203.603,225.381 202.038 L 225.857 199.193 230.018 199.304 L 234.180 199.414 234.934 203.418 L 235.688 207.422 239.125 207.422 C 242.538 207.422,242.559 207.416,242.193 206.543 C 241.990 206.060,240.951 201.357,239.885 196.094 C 237.822 185.906,234.494 170.441,234.191 169.629 C 233.986 169.079,225.971 168.908,225.639 169.446 M282.606 169.629 C 282.506 169.897,282.085 171.699,281.671 173.633 C 280.708 178.128,278.129 189.715,276.192 198.242 C 275.363 201.895,274.566 205.454,274.421 206.152 L 274.157 207.422 277.686 207.422 L 281.215 207.422 281.439 206.152 C 281.562 205.454,281.880 203.652,282.145 202.148 L 282.626 199.414 286.821 199.303 C 289.128 199.242,291.032 199.330,291.053 199.499 C 291.074 199.667,291.381 201.475,291.737 203.516 L 292.383 207.227 295.801 207.339 C 297.681 207.402,299.219 207.370,299.219 207.270 C 299.219 206.664,291.406 169.846,291.210 169.529 C 290.841 168.933,282.831 169.025,282.606 169.629 M336.133 169.875 C 327.893 173.654,329.124 182.738,338.867 190.055 C 345.372 194.940,347.234 198.430,344.629 200.853 C 341.993 203.305,337.518 201.987,336.877 198.570 L 336.632 197.266 333.843 197.272 C 329.538 197.281,329.177 198.338,331.879 203.015 C 335.901 209.977,349.475 209.108,351.515 201.757 C 353.277 195.413,350.841 190.810,342.440 184.603 C 338.259 181.515,337.109 180.132,337.109 178.194 C 337.109 173.545,344.280 173.327,345.147 177.951 C 345.422 179.415,345.513 179.426,350.000 178.546 C 352.854 177.986,349.894 171.731,345.898 169.881 C 343.732 168.878,338.313 168.874,336.133 169.875 M247.632 169.629 C 247.427 170.445,247.275 201.874,247.464 204.199 L 247.726 207.422 250.816 207.422 L 253.906 207.422 253.906 199.206 L 253.906 190.990 258.301 191.100 L 262.695 191.211 262.801 199.316 L 262.906 207.422 266.024 207.422 L 269.141 207.422 269.141 188.477 L 269.141 169.531 266.016 169.531 L 262.891 169.531 262.891 177.125 C 262.891 181.302,262.759 184.775,262.598 184.842 C 262.437 184.910,260.408 184.909,258.090 184.840 L 253.875 184.715 253.988 177.123 L 254.102 169.530 250.879 169.531 C 249.106 169.531,247.645 169.575,247.632 169.629 M303.516 184.385 C 303.516 200.810,303.697 202.213,306.148 204.795 C 309.904 208.751,318.654 208.917,322.580 205.107 C 325.098 202.664,325.137 202.371,325.293 185.059 L 325.432 169.531 322.091 169.531 L 318.750 169.531 318.750 184.023 C 318.750 196.296,318.657 198.710,318.145 199.789 C 316.994 202.214,313.764 202.722,311.627 200.814 L 310.352 199.674 310.241 184.603 L 310.130 169.531 306.823 169.531 L 303.516 169.531 303.516 184.385 M146.222 175.533 C 149.652 176.966,150.614 180.447,150.300 190.296 C 150.015 199.243,148.586 201.529,143.262 201.554 L 141.406 201.563 141.406 188.281 L 141.406 175.000 143.177 175.000 C 144.150 175.000,145.521 175.240,146.222 175.533 M203.446 175.940 C 206.595 177.569,206.863 184.197,203.868 186.420 C 202.539 187.407,198.127 187.866,197.623 187.069 C 197.204 186.407,197.145 175.645,197.559 175.219 C 198.022 174.742,202.093 175.241,203.446 175.940 M231.637 185.547 C 233.259 194.444,233.402 193.750,229.948 193.750 C 226.314 193.750,226.494 194.219,227.739 187.977 C 228.326 185.029,229.040 181.310,229.324 179.713 C 229.944 176.225,229.931 176.192,231.637 185.547 M288.069 181.836 C 290.487 195.363,290.649 193.750,286.872 193.750 C 283.246 193.750,283.367 194.342,285.169 185.385 C 286.021 181.149,286.719 177.572,286.719 177.436 C 286.719 176.134,287.511 178.717,288.069 181.836 M147.443 221.384 C 146.800 221.492,146.366 222.376,145.228 225.896 C 143.114 232.437,143.192 231.955,144.285 231.746 C 144.951 231.619,145.297 231.231,145.457 230.431 C 145.812 228.654,149.507 228.686,149.863 230.469 C 150.040 231.354,150.312 231.641,150.977 231.641 C 151.854 231.641,151.852 231.625,150.298 226.660 C 148.585 221.185,148.588 221.191,147.443 221.384 M154.297 226.404 C 154.297 231.380,154.336 231.641,155.078 231.641 C 155.819 231.641,155.859 231.380,155.859 226.608 C 155.859 221.904,155.808 221.562,155.078 221.371 C 154.326 221.174,154.297 221.359,154.297 226.404 M158.594 226.340 L 158.594 231.641 159.599 231.641 L 160.604 231.641 160.478 228.319 C 160.322 224.215,160.427 224.215,162.936 228.320 C 165.970 233.287,166.406 233.046,166.406 226.404 C 166.406 221.392,166.373 221.176,165.640 221.367 C 164.964 221.544,164.860 221.969,164.761 224.944 L 164.648 228.320 162.492 224.805 C 159.137 219.334,158.594 219.549,158.594 226.340 M168.359 222.079 C 168.359 222.864,168.540 222.960,169.922 222.909 L 171.485 222.852 171.485 227.246 C 171.484 231.356,171.534 231.641,172.253 231.641 C 172.965 231.641,173.029 231.318,173.132 227.246 L 173.242 222.852 174.707 222.730 C 175.868 222.634,176.172 222.448,176.172 221.832 C 176.172 221.104,175.927 221.060,172.266 221.123 C 168.482 221.188,168.359 221.218,168.359 222.079 M178.516 226.402 C 178.516 231.405,178.551 231.641,179.308 231.641 C 180.447 231.641,180.339 221.429,179.199 221.263 C 178.577 221.172,178.516 221.635,178.516 226.402 M183.086 221.341 C 182.337 222.090,182.794 231.641,183.579 231.641 C 184.277 231.641,184.356 231.319,184.458 228.027 L 184.570 224.414 186.851 228.027 C 190.175 233.293,190.625 233.123,190.625 226.608 C 190.625 221.904,190.574 221.562,189.844 221.371 C 189.108 221.179,189.063 221.359,189.063 224.483 C 189.063 228.476,188.879 228.471,186.423 224.416 C 184.663 221.507,183.756 220.672,183.086 221.341 M196.205 221.354 C 194.016 221.812,192.493 225.387,193.316 228.134 C 194.636 232.542,200.362 232.863,201.547 228.596 C 202.195 226.263,202.137 226.172,200.000 226.172 C 198.307 226.172,198.047 226.276,198.047 226.953 C 198.047 227.526,198.307 227.734,199.023 227.734 C 200.250 227.734,200.307 228.647,199.132 229.470 C 196.277 231.469,193.393 227.197,195.464 224.036 C 196.288 222.778,198.209 222.696,199.454 223.866 C 200.097 224.470,200.500 224.587,200.989 224.313 C 202.706 223.352,198.649 220.843,196.205 221.354 M210.307 221.669 C 209.964 222.594,207.031 231.418,207.031 231.525 C 207.031 232.381,208.931 231.421,209.121 230.469 C 209.343 229.357,209.454 229.297,211.280 229.297 C 213.067 229.297,213.234 229.381,213.613 230.469 C 213.880 231.233,214.288 231.641,214.787 231.641 C 215.520 231.641,214.465 227.238,212.479 222.015 C 212.137 221.115,210.603 220.870,210.307 221.669 M217.578 226.367 C 217.578 231.347,217.621 231.641,218.345 231.641 C 219.043 231.641,219.121 231.319,219.224 228.045 L 219.336 224.450 221.484 228.039 C 224.712 233.431,225.240 233.208,225.215 226.465 C 225.196 221.428,225.172 221.286,224.331 221.166 C 223.500 221.048,223.463 221.180,223.355 224.647 L 223.242 228.251 221.108 224.672 C 217.989 219.444,217.578 219.641,217.578 226.367 M244.141 221.955 C 240.786 224.225,241.415 230.551,245.086 231.473 C 247.591 232.101,250.975 230.291,249.421 229.155 C 248.813 228.710,248.604 228.740,247.987 229.356 C 246.497 230.847,244.616 229.995,243.719 227.423 C 242.732 224.591,245.956 221.740,248.027 223.615 C 249.487 224.936,250.516 223.668,249.079 222.318 C 247.662 220.987,245.777 220.848,244.141 221.955 M254.883 221.466 C 250.385 223.328,251.401 231.641,256.127 231.641 C 259.265 231.641,261.267 228.949,260.740 225.436 C 260.450 223.502,258.788 221.484,257.484 221.484 C 257.055 221.484,256.470 221.407,256.184 221.313 C 255.898 221.220,255.313 221.288,254.883 221.466 M263.770 221.352 C 262.833 221.730,263.101 231.641,264.048 231.641 C 264.746 231.641,264.824 231.319,264.927 228.027 L 265.039 224.414 267.362 228.027 C 270.696 233.212,271.094 233.061,271.094 226.608 C 271.094 221.904,271.043 221.562,270.313 221.371 C 269.574 221.178,269.531 221.359,269.531 224.669 C 269.531 228.779,269.508 228.777,266.856 224.437 C 265.732 222.598,264.688 221.108,264.535 221.125 C 264.383 221.142,264.038 221.244,263.770 221.352 M275.298 221.705 C 272.749 223.088,273.611 225.893,276.931 227.018 C 279.303 227.821,279.811 228.336,279.256 229.373 C 278.790 230.243,276.689 230.319,275.531 229.508 C 274.860 229.037,274.595 229.026,274.028 229.441 C 272.907 230.260,274.966 231.641,277.310 231.641 C 282.074 231.641,282.666 227.406,278.133 225.753 C 275.538 224.807,275.273 224.588,275.621 223.683 C 276.014 222.658,277.338 222.505,278.482 223.351 C 279.347 223.990,279.648 224.041,280.196 223.641 C 282.208 222.170,277.715 220.394,275.298 221.705 M282.031 222.152 C 282.031 223.017,282.168 223.095,283.496 222.980 L 284.961 222.853 285.071 227.247 C 285.174 231.318,285.238 231.641,285.950 231.641 C 286.668 231.641,286.719 231.357,286.719 227.375 L 286.719 223.109 287.881 222.854 C 288.520 222.713,289.224 222.710,289.444 222.846 C 289.673 222.988,289.844 222.702,289.844 222.176 C 289.844 221.277,289.767 221.258,285.938 221.228 C 282.047 221.197,282.031 221.201,282.031 222.152 M292.176 221.284 C 291.489 221.582,292.164 231.641,292.871 231.641 C 293.676 231.641,293.750 231.460,293.750 229.492 C 293.750 227.631,293.851 227.344,294.503 227.344 C 295.035 227.344,295.543 227.972,296.239 229.492 C 297.053 231.271,297.392 231.641,298.210 231.641 L 299.198 231.641 298.037 229.670 C 296.644 227.308,296.638 227.243,297.754 226.753 C 298.950 226.228,299.223 223.134,298.158 222.171 C 297.638 221.700,292.851 220.990,292.176 221.284 M302.212 221.416 C 300.874 221.675,301.413 229.460,302.854 230.699 C 306.222 233.593,308.984 231.385,308.984 225.799 C 308.984 223.641,308.984 221.743,308.984 221.582 C 308.984 221.421,308.677 221.289,308.301 221.289 C 307.703 221.289,307.603 221.777,307.504 225.173 C 307.382 229.392,307.099 230.078,305.481 230.078 C 303.639 230.078,303.168 229.092,303.042 224.980 C 302.940 221.627,302.862 221.290,302.212 221.416 M313.760 221.862 C 310.937 223.615,310.879 229.343,313.668 230.990 C 315.284 231.945,317.325 231.822,318.631 230.691 C 320.213 229.320,319.366 228.451,317.452 229.482 C 314.993 230.807,313.281 229.476,313.281 226.240 C 313.281 223.475,315.755 221.983,317.589 223.642 C 318.207 224.202,319.531 224.080,319.531 223.464 C 319.531 221.794,315.619 220.708,313.760 221.862 M320.704 222.168 C 320.703 222.933,320.905 223.047,322.266 223.047 L 323.828 223.047 323.828 227.344 C 323.828 231.380,323.875 231.641,324.609 231.641 C 325.343 231.641,325.391 231.380,325.391 227.344 L 325.391 223.047 327.148 223.047 C 328.760 223.047,328.906 222.966,328.906 222.077 L 328.906 221.107 324.806 221.198 C 320.841 221.286,320.705 221.318,320.704 222.168 M330.859 226.451 C 330.859 231.380,330.899 231.641,331.641 231.641 C 332.383 231.641,332.422 231.380,332.422 226.451 C 332.422 221.522,332.383 221.261,331.641 221.261 C 330.899 221.261,330.859 221.522,330.859 226.451 M338.086 221.375 C 334.347 222.286,333.607 229.244,337.059 231.029 C 342.614 233.901,346.653 225.130,341.284 221.856 C 340.036 221.095,339.540 221.020,338.086 221.375 M346.094 226.367 C 346.094 231.347,346.136 231.641,346.860 231.641 C 347.559 231.641,347.637 231.319,347.739 228.027 L 347.852 224.414 350.175 228.027 C 353.551 233.278,353.960 233.104,353.820 226.470 C 353.724 221.906,353.631 221.283,353.027 221.168 C 352.419 221.051,352.344 221.406,352.344 224.385 C 352.344 228.517,352.250 228.518,349.676 224.413 C 346.539 219.413,346.094 219.656,346.094 226.367 M135.547 226.563 C 135.547 231.380,135.587 231.641,136.328 231.641 C 137.002 231.641,137.109 231.380,137.109 229.742 L 137.109 227.843 139.160 227.604 C 144.519 226.979,143.704 221.484,138.253 221.484 L 135.547 221.484 135.547 226.563 M228.125 226.563 L 228.125 231.641 230.091 231.641 C 233.949 231.641,235.938 229.929,235.938 226.607 C 235.938 222.911,234.503 221.484,230.786 221.484 L 228.125 221.484 228.125 226.563 M140.499 223.662 C 141.424 224.927,140.382 226.156,138.379 226.166 C 137.129 226.172,137.109 226.145,137.109 224.363 L 137.109 222.554 138.573 222.792 C 139.378 222.922,140.245 223.314,140.499 223.662 M233.293 223.737 C 235.675 225.812,233.894 230.078,230.646 230.078 C 229.551 230.078,229.091 223.311,230.161 222.954 C 230.933 222.697,232.567 223.106,233.293 223.737 M296.510 223.061 C 298.209 223.970,297.168 226.172,295.039 226.172 C 293.772 226.172,293.750 226.142,293.750 224.414 C 293.750 222.517,294.661 222.071,296.510 223.061 M258.376 223.915 C 259.276 225.200,259.176 228.324,258.203 229.297 C 255.375 232.125,251.917 226.784,254.599 223.730 C 255.475 222.732,257.621 222.837,258.376 223.915 M341.225 223.843 C 342.307 225.040,342.179 228.433,341.016 229.375 C 337.953 231.856,334.676 226.748,337.396 223.730 C 338.243 222.790,340.327 222.851,341.225 223.843 M148.370 225.420 C 148.989 228.100,148.983 228.125,147.721 228.125 C 146.178 228.125,146.128 227.986,146.799 225.576 C 147.536 222.930,147.790 222.904,148.370 225.420 M212.063 225.564 C 212.677 228.002,212.642 228.125,211.328 228.125 C 210.001 228.125,209.896 227.718,210.609 225.338 C 211.195 223.382,211.526 223.433,212.063 225.564 " stroke="none" fill="#1f1f20" fill-rule="evenodd"></path><path id="path2" d="M164.160 169.425 C 164.966 169.509,166.284 169.509,167.090 169.425 C 167.896 169.341,167.236 169.272,165.625 169.272 C 164.014 169.272,163.354 169.341,164.160 169.425 M320.422 169.428 C 321.449 169.509,323.031 169.508,323.938 169.426 C 324.844 169.344,324.004 169.278,322.070 169.279 C 320.137 169.280,319.395 169.347,320.422 169.428 M168.871 171.680 C 168.873 172.969,168.946 173.449,169.033 172.747 C 169.120 172.045,169.118 170.990,169.029 170.403 C 168.940 169.816,168.869 170.391,168.871 171.680 M162.255 177.148 C 162.256 179.512,162.321 180.428,162.398 179.185 C 162.476 177.942,162.476 176.008,162.397 174.888 C 162.318 173.768,162.255 174.785,162.255 177.148 M262.628 175.977 C 262.630 177.480,262.701 178.048,262.785 177.237 C 262.870 176.427,262.868 175.196,262.782 174.503 C 262.696 173.810,262.626 174.473,262.628 175.977 M168.924 186.133 C 168.924 192.793,168.977 195.572,169.042 192.310 C 169.107 189.047,169.107 183.597,169.042 180.200 C 168.977 176.803,168.924 179.473,168.924 186.133 M262.621 181.836 C 262.623 183.125,262.696 183.605,262.783 182.903 C 262.870 182.201,262.868 181.146,262.779 180.559 C 262.690 179.972,262.619 180.547,262.621 181.836 M120.097 194.141 C 120.097 201.338,120.150 204.282,120.214 200.684 C 120.279 197.085,120.279 191.196,120.214 187.598 C 120.150 183.999,120.097 186.943,120.097 194.141 M228.223 193.644 C 229.028 193.728,230.347 193.728,231.152 193.644 C 231.958 193.560,231.299 193.491,229.688 193.491 C 228.076 193.491,227.417 193.560,228.223 193.644 M285.059 193.642 C 285.757 193.729,286.899 193.729,287.598 193.642 C 288.296 193.555,287.725 193.484,286.328 193.484 C 284.932 193.484,284.360 193.555,285.059 193.642 M254.023 198.828 C 254.023 200.010,254.097 200.493,254.186 199.902 C 254.276 199.312,254.276 198.345,254.186 197.754 C 254.097 197.163,254.023 197.646,254.023 198.828 M352.044 198.438 C 352.044 199.189,352.124 199.497,352.222 199.121 C 352.321 198.745,352.321 198.130,352.222 197.754 C 352.124 197.378,352.044 197.686,352.044 198.438 M227.051 199.488 C 227.427 199.586,228.042 199.586,228.418 199.488 C 228.794 199.390,228.486 199.309,227.734 199.309 C 226.982 199.309,226.675 199.390,227.051 199.488 M231.152 199.494 C 231.636 199.588,232.427 199.588,232.910 199.494 C 233.394 199.401,232.998 199.325,232.031 199.325 C 231.064 199.325,230.669 199.401,231.152 199.494 M120.063 210.938 C 120.063 212.979,120.129 213.813,120.209 212.793 C 120.289 211.772,120.289 210.103,120.209 209.082 C 120.129 208.062,120.063 208.896,120.063 210.938 M120.074 220.898 C 120.074 223.691,120.137 224.783,120.212 223.324 C 120.287 221.864,120.287 219.579,120.211 218.245 C 120.135 216.912,120.073 218.105,120.074 220.898 M330.619 226.563 C 330.619 229.248,330.682 230.347,330.758 229.004 C 330.834 227.661,330.834 225.464,330.758 224.121 C 330.682 222.778,330.619 223.877,330.619 226.563 M173.193 227.539 C 173.194 229.902,173.258 230.819,173.336 229.576 C 173.414 228.332,173.413 226.399,173.334 225.279 C 173.256 224.159,173.192 225.176,173.193 227.539 M286.853 226.367 C 286.854 228.086,286.923 228.740,287.005 227.822 C 287.088 226.903,287.087 225.497,287.003 224.697 C 286.919 223.897,286.851 224.648,286.853 226.367 M311.427 226.367 C 311.431 227.227,311.511 227.532,311.604 227.046 C 311.698 226.560,311.694 225.857,311.597 225.484 C 311.499 225.110,311.422 225.508,311.427 226.367 M154.040 228.711 C 154.042 230.430,154.110 231.084,154.193 230.165 C 154.275 229.247,154.274 227.840,154.190 227.040 C 154.106 226.240,154.039 226.992,154.040 228.711 M60.254 228.004 C 60.630 228.102,61.245 228.102,61.621 228.004 C 61.997 227.905,61.689 227.825,60.938 227.825 C 60.186 227.825,59.878 227.905,60.254 228.004 M64.761 228.024 C 66.113 228.100,68.222 228.100,69.449 228.023 C 70.676 227.945,69.570 227.883,66.992 227.884 C 64.414 227.884,63.410 227.947,64.761 228.024 M85.254 228.004 C 85.630 228.102,86.245 228.102,86.621 228.004 C 86.997 227.905,86.689 227.825,85.938 227.825 C 85.186 227.825,84.878 227.905,85.254 228.004 M146.777 229.573 C 147.261 229.666,148.052 229.666,148.535 229.573 C 149.019 229.479,148.623 229.403,147.656 229.403 C 146.689 229.403,146.294 229.479,146.777 229.573 M210.454 229.573 C 210.940 229.667,211.643 229.663,212.016 229.565 C 212.390 229.467,211.992 229.391,211.133 229.395 C 210.273 229.400,209.968 229.480,210.454 229.573 " stroke="none" fill="#999996" fill-rule="evenodd"></path><path id="path3" d="M303.303 169.631 C 303.199 169.901,303.163 176.098,303.223 183.401 L 303.331 196.680 303.423 183.122 L 303.516 169.564 306.543 169.431 L 309.570 169.298 306.531 169.219 C 304.390 169.164,303.435 169.286,303.303 169.631 M162.216 171.484 C 162.216 172.451,162.292 172.847,162.385 172.363 C 162.478 171.880,162.478 171.089,162.385 170.605 C 162.292 170.122,162.216 170.518,162.216 171.484 M116.016 176.685 C 116.016 176.752,116.587 177.323,117.285 177.954 L 118.555 179.102 117.407 177.832 C 116.338 176.649,116.016 176.383,116.016 176.685 M330.567 178.320 C 330.572 179.180,330.652 179.485,330.745 178.999 C 330.838 178.513,330.835 177.810,330.737 177.437 C 330.639 177.063,330.563 177.461,330.567 178.320 M55.256 180.960 C 55.152 181.230,55.114 187.338,55.171 194.534 L 55.274 207.617 55.469 194.043 C 55.576 186.577,55.615 180.468,55.554 180.469 C 55.494 180.469,55.359 180.690,55.256 180.960 M113.853 202.344 C 113.853 212.979,113.903 217.329,113.965 212.012 C 114.026 206.694,114.026 197.993,113.965 192.676 C 113.903 187.358,113.853 191.709,113.853 202.344 M61.900 202.539 C 61.900 213.066,61.950 217.317,62.011 211.985 C 62.073 206.652,62.073 198.039,62.011 192.844 C 61.950 187.649,61.900 192.012,61.900 202.539 M156.769 188.086 C 156.771 189.590,156.841 190.157,156.926 189.347 C 157.010 188.536,157.009 187.306,156.923 186.612 C 156.836 185.919,156.767 186.582,156.769 188.086 M283.691 199.488 C 284.067 199.586,284.683 199.586,285.059 199.488 C 285.435 199.390,285.127 199.309,284.375 199.309 C 283.623 199.309,283.315 199.390,283.691 199.488 M287.793 199.494 C 288.276 199.588,289.067 199.588,289.551 199.494 C 290.034 199.401,289.639 199.325,288.672 199.325 C 287.705 199.325,287.310 199.401,287.793 199.494 M134.506 204.297 C 134.506 205.908,134.575 206.567,134.660 205.762 C 134.744 204.956,134.744 203.638,134.660 202.832 C 134.575 202.026,134.506 202.686,134.506 204.297 M254.031 204.688 C 254.031 206.084,254.102 206.655,254.189 205.957 C 254.275 205.259,254.275 204.116,254.189 203.418 C 254.102 202.720,254.031 203.291,254.031 204.688 M137.988 207.711 C 139.224 207.788,141.245 207.788,142.480 207.711 C 143.716 207.633,142.705 207.570,140.234 207.570 C 137.764 207.570,136.753 207.633,137.988 207.711 M217.676 207.691 C 218.052 207.789,218.667 207.789,219.043 207.691 C 219.419 207.593,219.111 207.513,218.359 207.513 C 217.607 207.513,217.300 207.593,217.676 207.691 M249.503 207.704 C 250.196 207.790,251.427 207.792,252.237 207.707 C 253.048 207.622,252.480 207.552,250.977 207.550 C 249.473 207.548,248.810 207.618,249.503 207.704 M55.169 208.984 C 55.169 209.736,55.249 210.044,55.347 209.668 C 55.446 209.292,55.446 208.677,55.347 208.301 C 55.249 207.925,55.169 208.232,55.169 208.984 M55.206 213.086 C 55.208 214.590,55.279 215.157,55.363 214.347 C 55.448 213.536,55.446 212.306,55.360 211.612 C 55.274 210.919,55.205 211.582,55.206 213.086 M217.366 226.464 C 217.382 231.557,217.423 231.838,218.164 231.874 C 218.737 231.902,218.766 231.869,218.273 231.751 C 217.685 231.610,217.584 230.921,217.474 226.341 L 217.348 221.093 217.366 226.464 M269.279 224.414 C 269.278 226.348,269.344 227.188,269.426 226.281 C 269.508 225.375,269.509 223.793,269.428 222.766 C 269.347 221.739,269.280 222.480,269.279 224.414 M345.856 226.172 C 345.856 229.072,345.918 230.259,345.993 228.809 C 346.068 227.358,346.068 224.985,345.993 223.535 C 345.918 222.085,345.856 223.271,345.856 226.172 M135.333 226.850 C 135.348 230.985,135.451 231.834,135.938 231.869 C 136.260 231.892,136.309 231.838,136.047 231.749 C 135.715 231.637,135.531 230.108,135.442 226.731 L 135.315 221.874 135.333 226.850 M178.302 226.855 C 178.320 231.749,178.336 231.837,179.205 231.888 C 179.918 231.930,179.940 231.906,179.314 231.765 C 178.600 231.603,178.528 231.204,178.411 226.732 L 178.284 221.874 178.302 226.855 M303.259 224.805 C 303.260 226.523,303.329 227.178,303.412 226.259 C 303.494 225.340,303.493 223.934,303.409 223.134 C 303.325 222.334,303.257 223.086,303.259 224.805 M154.005 223.633 C 154.009 224.492,154.089 224.798,154.183 224.312 C 154.276 223.826,154.272 223.123,154.175 222.749 C 154.077 222.376,154.000 222.773,154.005 223.633 M229.813 226.563 C 229.813 227.959,229.883 228.530,229.970 227.832 C 230.057 227.134,230.057 225.991,229.970 225.293 C 229.883 224.595,229.813 225.166,229.813 226.563 M284.883 226.172 C 284.883 227.354,284.956 227.837,285.045 227.246 C 285.135 226.655,285.135 225.688,285.045 225.098 C 284.956 224.507,284.883 224.990,284.883 226.172 M184.406 228.005 C 184.365 229.886,184.416 231.339,184.520 231.235 C 184.782 230.973,184.933 225.037,184.684 224.788 C 184.573 224.677,184.448 226.125,184.406 228.005 M263.025 227.539 C 263.026 229.258,263.095 229.912,263.177 228.994 C 263.260 228.075,263.259 226.669,263.175 225.869 C 263.091 225.069,263.023 225.820,263.025 227.539 M347.788 228.125 C 347.788 229.736,347.857 230.396,347.941 229.590 C 348.025 228.784,348.025 227.466,347.941 226.660 C 347.857 225.854,347.788 226.514,347.788 228.125 M137.598 226.051 C 137.974 226.149,138.589 226.149,138.965 226.051 C 139.341 225.952,139.033 225.872,138.281 225.872 C 137.529 225.872,137.222 225.952,137.598 226.051 M264.950 227.344 C 264.950 228.311,265.026 228.706,265.119 228.223 C 265.213 227.739,265.213 226.948,265.119 226.465 C 265.026 225.981,264.950 226.377,264.950 227.344 M294.238 226.051 C 294.614 226.149,295.229 226.149,295.605 226.051 C 295.981 225.952,295.674 225.872,294.922 225.872 C 294.170 225.872,293.862 225.952,294.238 226.051 M75.488 228.019 C 76.294 228.103,77.612 228.103,78.418 228.019 C 79.224 227.935,78.564 227.866,76.953 227.866 C 75.342 227.866,74.683 227.935,75.488 228.019 M80.957 228.004 C 81.333 228.102,81.948 228.102,82.324 228.004 C 82.700 227.905,82.393 227.825,81.641 227.825 C 80.889 227.825,80.581 227.905,80.957 228.004 M90.918 228.026 C 93.120 228.095,96.724 228.095,98.926 228.026 C 101.128 227.956,99.326 227.899,94.922 227.899 C 90.518 227.899,88.716 227.956,90.918 228.026 M325.497 229.688 C 325.497 230.654,325.573 231.050,325.666 230.566 C 325.759 230.083,325.759 229.292,325.666 228.809 C 325.573 228.325,325.497 228.721,325.497 229.688 M262.989 231.250 C 263.076 231.572,263.573 231.868,264.093 231.908 C 264.839 231.965,264.874 231.935,264.258 231.765 C 263.828 231.647,263.331 231.351,263.154 231.107 C 262.941 230.814,262.885 230.863,262.989 231.250 M269.396 231.738 C 269.496 231.899,269.908 232.031,270.313 232.031 C 270.717 232.031,271.129 231.899,271.229 231.738 C 271.328 231.577,270.916 231.445,270.313 231.445 C 269.709 231.445,269.297 231.577,269.396 231.738 " stroke="none" fill="#cacac7" fill-rule="evenodd"></path><path id="path4" d="M340.137 169.026 C 340.620 169.119,341.411 169.119,341.895 169.026 C 342.378 168.933,341.982 168.856,341.016 168.856 C 340.049 168.856,339.653 168.933,340.137 169.026 M179.395 169.425 C 180.200 169.509,181.519 169.509,182.324 169.425 C 183.130 169.341,182.471 169.272,180.859 169.272 C 179.248 169.272,178.589 169.341,179.395 169.425 M247.428 169.673 C 247.315 169.965,247.279 171.240,247.348 172.505 L 247.473 174.805 247.662 171.972 C 247.852 169.129,247.807 168.684,247.428 169.673 M262.658 169.682 C 262.544 169.980,262.519 170.990,262.602 171.928 C 262.754 173.632,262.754 173.632,262.822 171.604 L 262.891 169.576 264.551 169.427 L 266.211 169.277 264.539 169.209 C 263.423 169.163,262.797 169.321,262.658 169.682 M184.130 174.023 C 184.131 176.387,184.196 177.303,184.273 176.060 C 184.351 174.817,184.351 172.883,184.272 171.763 C 184.193 170.643,184.130 171.660,184.130 174.023 M254.065 178.516 C 254.065 182.061,254.124 183.511,254.197 181.738 C 254.269 179.966,254.269 177.065,254.197 175.293 C 254.124 173.521,254.065 174.971,254.065 178.516 M197.422 181.055 C 197.422 184.277,197.483 185.544,197.556 183.869 C 197.630 182.194,197.629 179.557,197.555 178.009 C 197.481 176.462,197.421 177.832,197.422 181.055 M162.268 187.500 C 162.268 191.045,162.328 192.495,162.400 190.723 C 162.472 188.950,162.472 186.050,162.400 184.277 C 162.328 182.505,162.268 183.955,162.268 187.500 M184.146 189.258 C 184.146 193.125,184.205 194.654,184.276 192.656 C 184.347 190.658,184.346 187.494,184.275 185.625 C 184.203 183.756,184.145 185.391,184.146 189.258 M247.372 185.547 C 247.372 186.514,247.448 186.909,247.541 186.426 C 247.634 185.942,247.634 185.151,247.541 184.668 C 247.448 184.185,247.372 184.580,247.372 185.547 M150.136 190.625 C 150.136 192.451,150.204 193.198,150.286 192.285 C 150.368 191.372,150.368 189.878,150.286 188.965 C 150.204 188.052,150.136 188.799,150.136 190.625 M262.662 200.391 C 262.662 204.365,262.720 205.991,262.791 204.004 C 262.862 202.017,262.862 198.765,262.791 196.777 C 262.720 194.790,262.662 196.416,262.662 200.391 M197.422 201.367 C 197.422 204.590,197.483 205.856,197.556 204.181 C 197.630 202.507,197.629 199.870,197.555 198.322 C 197.481 196.774,197.421 198.145,197.422 201.367 M247.372 205.859 C 247.372 206.826,247.448 207.222,247.541 206.738 C 247.634 206.255,247.634 205.464,247.541 204.980 C 247.448 204.497,247.372 204.893,247.372 205.859 M136.621 221.376 C 137.319 221.463,138.462 221.463,139.160 221.376 C 139.858 221.290,139.287 221.219,137.891 221.219 C 136.494 221.219,135.923 221.290,136.621 221.376 M229.009 221.374 C 229.603 221.464,230.482 221.461,230.962 221.369 C 231.443 221.276,230.957 221.203,229.883 221.205 C 228.809 221.208,228.416 221.284,229.009 221.374 M69.645 221.774 C 71.104 221.850,73.389 221.849,74.723 221.773 C 76.057 221.697,74.863 221.635,72.070 221.636 C 69.277 221.637,68.186 221.699,69.645 221.774 M87.603 221.765 C 88.197 221.854,89.076 221.852,89.556 221.759 C 90.037 221.667,89.551 221.593,88.477 221.596 C 87.402 221.599,87.009 221.675,87.603 221.765 M95.410 221.754 C 95.786 221.852,96.401 221.852,96.777 221.754 C 97.153 221.655,96.846 221.575,96.094 221.575 C 95.342 221.575,95.034 221.655,95.410 221.754 M103.027 221.772 C 104.155 221.851,106.001 221.851,107.129 221.772 C 108.257 221.693,107.334 221.629,105.078 221.629 C 102.822 221.629,101.899 221.693,103.027 221.772 M110.254 221.764 C 110.845 221.854,111.812 221.854,112.402 221.764 C 112.993 221.675,112.510 221.601,111.328 221.601 C 110.146 221.601,109.663 221.675,110.254 221.764 M188.808 224.609 C 188.808 226.436,188.876 227.183,188.958 226.270 C 189.040 225.356,189.040 223.862,188.958 222.949 C 188.876 222.036,188.808 222.783,188.808 224.609 M291.947 226.563 C 291.947 229.248,292.010 230.347,292.086 229.004 C 292.162 227.661,292.162 225.464,292.086 224.121 C 292.010 222.778,291.947 223.877,291.947 226.563 M309.121 225.000 C 309.121 226.826,309.188 227.573,309.270 226.660 C 309.353 225.747,309.353 224.253,309.270 223.340 C 309.188 222.427,309.121 223.174,309.121 225.000 M352.081 224.805 C 352.083 226.309,352.154 226.876,352.238 226.066 C 352.323 225.255,352.321 224.025,352.235 223.331 C 352.149 222.638,352.080 223.301,352.081 224.805 M174.126 222.933 C 174.612 223.026,175.315 223.022,175.688 222.925 C 176.062 222.827,175.664 222.750,174.805 222.755 C 173.945 222.759,173.640 222.839,174.126 222.933 " stroke="none" fill="#7c7c74" fill-rule="evenodd"></path></g></svg>