<?xml version="1.0" standalone="no"?>
<!DOCTYPE svg PUBLIC "-//W3C//DTD SVG 20010904//EN"
 "http://www.w3.org/TR/2001/REC-SVG-20010904/DTD/svg10.dtd">
<svg version="1.0" xmlns="http://www.w3.org/2000/svg"
 width="1024.000000pt" height="1024.000000pt" viewBox="0 0 1024.000000 1024.000000"
 preserveAspectRatio="xMidYMid meet">

<g transform="translate(0.000000,1024.000000) scale(0.100000,-0.100000)"
fill="#000000" stroke="none">
<path d="M0 5120 l0 -5120 5120 0 5120 0 0 5120 0 5120 -5120 0 -5120 0 0
-5120z m2316 1178 c32 -28 91 -81 129 -118 39 -36 110 -101 159 -145 50 -44
140 -125 201 -180 61 -55 143 -129 183 -164 l72 -63 0 -604 0 -604 -815 0
-815 0 0 591 0 591 68 67 c37 36 140 131 227 210 211 191 365 332 445 408 36
35 70 63 76 63 5 0 37 -23 70 -52z m6518 -408 c48 -18 104 -79 126 -136 11
-30 20 -59 20 -63 0 -5 -26 -12 -57 -16 -32 -4 -60 -8 -62 -9 -2 0 -9 14 -15
31 -20 58 -49 78 -115 78 -76 0 -111 -28 -111 -88 0 -66 23 -97 137 -182 59
-44 125 -98 146 -120 156 -164 113 -405 -79 -444 -77 -15 -120 -14 -183 5 -88
26 -171 126 -171 206 0 16 46 28 106 28 28 0 33 -4 38 -33 24 -127 246 -118
246 10 0 19 -6 46 -14 61 -16 30 -113 125 -166 162 -71 49 -150 134 -176 189
-22 46 -26 65 -22 116 9 100 58 168 148 204 32 13 171 14 204 1z m-4999 -28
c123 -57 151 -127 162 -407 10 -252 -20 -387 -99 -447 -61 -46 -120 -60 -285
-66 l-153 -5 0 478 0 477 163 -4 c143 -3 168 -6 212 -26z m475 -344 c0 -355 1
-375 20 -406 31 -51 97 -68 161 -42 61 26 61 25 60 441 l-2 379 76 0 76 0 -3
-392 -3 -393 -28 -57 c-24 -49 -35 -61 -83 -84 -115 -56 -273 -40 -345 36 -67
70 -69 88 -69 512 l0 378 70 0 70 0 0 -372z m981 341 c92 -43 139 -131 139
-259 0 -96 -23 -163 -76 -220 -24 -26 -44 -51 -44 -56 0 -5 31 -93 69 -196
l69 -188 -72 0 -72 0 -41 108 c-23 59 -55 141 -70 182 l-29 75 -59 0 -60 0 -3
-182 -2 -183 -75 0 -75 0 0 476 0 476 173 -4 c161 -3 176 -5 228 -29z m738
-171 c23 -112 64 -306 91 -433 27 -126 51 -249 55 -272 l7 -43 -70 0 -70 0
-19 103 -19 102 -117 3 c-64 1 -117 1 -118 0 0 -2 -8 -48 -17 -103 l-17 -100
-78 -3 -79 -3 7 33 c4 18 23 105 42 193 45 204 59 269 83 380 10 50 31 147 46
218 l27 127 102 0 101 0 43 -202z m463 5 l3 -198 120 0 120 0 3 198 2 197 70
0 70 0 0 -475 0 -475 -70 0 -70 0 0 210 0 210 -119 0 c-99 0 -120 -3 -125 -16
-3 -9 -6 -103 -6 -210 l0 -194 -75 0 -75 0 0 383 c0 211 3 425 6 475 l7 92 68
0 69 0 2 -197z m967 145 c11 -49 97 -464 156 -754 14 -67 25 -127 25 -133 0
-8 -22 -11 -72 -9 l-73 3 -19 103 -19 103 -116 -3 -116 -3 -19 -102 -19 -103
-73 0 c-86 0 -83 -7 -54 119 10 47 55 250 100 449 44 200 82 368 86 373 3 5
49 9 103 9 l98 0 12 -52z m473 -334 l3 -386 33 -29 c26 -24 41 -29 82 -29 41
0 56 5 82 29 l33 29 3 386 3 386 74 0 75 0 0 -353 c0 -467 -9 -513 -113 -572
-48 -27 -60 -30 -147 -30 -103 0 -142 11 -201 56 -27 22 -41 44 -57 94 -21 62
-22 84 -22 435 l0 370 75 0 74 0 3 -386z m-4309 -965 c43 -52 0 -119 -78 -119
l-45 0 0 -50 c0 -38 -4 -50 -15 -50 -12 0 -15 20 -15 119 l0 120 38 4 c58 7
95 -1 115 -24z m347 -33 c0 -34 3 -91 6 -125 7 -58 6 -61 -15 -61 -20 0 -21 4
-21 118 0 65 3 122 7 125 17 17 23 2 23 -57z m189 -32 c30 -46 58 -84 63 -84
4 0 8 38 8 85 0 69 3 85 15 85 13 0 15 -20 15 -120 0 -111 -1 -120 -19 -120
-13 0 -38 29 -77 90 -32 50 -61 90 -65 90 -4 0 -6 -41 -5 -90 1 -82 -1 -90
-18 -90 -15 0 -17 5 -12 31 3 17 6 73 6 124 0 84 2 93 18 88 9 -2 41 -42 71
-89z m949 76 c17 -11 32 -24 32 -30 0 -15 -26 -12 -40 5 -7 8 -27 15 -45 15
-48 0 -75 -38 -75 -102 0 -80 61 -122 118 -82 12 8 22 26 22 39 0 18 -6 24
-27 27 -44 5 -28 23 20 23 l42 0 -4 -35 c-6 -66 -35 -90 -107 -90 -26 0 -44 8
-65 29 -25 26 -29 37 -29 88 0 67 17 98 64 119 42 18 56 17 94 -6z m557 -75
l60 -85 3 85 c2 67 6 85 17 85 12 0 15 -21 15 -120 0 -97 -3 -120 -14 -120 -8
0 -40 37 -72 83 -31 45 -62 87 -67 92 -6 6 -8 -23 -4 -82 5 -87 4 -93 -14 -93
-18 0 -19 8 -19 109 0 170 6 173 95 46z m333 63 c58 -48 44 -171 -23 -202 -18
-9 -54 -16 -79 -16 l-46 0 0 119 0 120 38 3 c44 4 88 -6 110 -24z m374 5 c10
-9 18 -20 18 -25 0 -14 -27 -9 -40 8 -9 10 -26 14 -49 12 -48 -4 -82 -52 -74
-106 12 -80 61 -112 113 -73 49 35 67 25 28 -16 -23 -25 -83 -32 -119 -13 -52
29 -66 140 -24 196 35 46 106 55 147 17z m234 12 c75 -31 87 -174 19 -219 -37
-24 -99 -20 -131 7 -23 20 -28 34 -31 83 -5 71 10 103 57 126 42 22 42 22 86
3z m334 -116 c0 -111 -1 -119 -19 -119 -13 0 -38 29 -80 93 l-61 92 0 -92 c0
-86 -1 -93 -20 -93 -19 0 -20 7 -20 121 0 119 0 120 22 117 16 -2 40 -29 78
-85 30 -46 58 -83 63 -83 4 0 7 38 7 83 0 46 3 87 6 90 18 18 24 -15 24 -124z
m195 117 c19 -8 35 -22 35 -30 0 -20 -9 -20 -34 -1 -43 32 -114 5 -89 -33 5
-9 32 -25 59 -34 76 -27 97 -76 52 -118 -19 -18 -32 -21 -71 -17 -26 2 -56 12
-67 22 -31 28 -8 39 32 15 39 -23 80 -16 92 16 9 23 -10 42 -53 54 -42 11 -81
43 -81 66 0 25 20 55 43 64 31 12 43 12 82 -4z m488 -13 c25 -24 21 -69 -9
-100 l-26 -26 19 -26 c11 -14 25 -36 32 -48 10 -20 9 -23 -6 -23 -10 0 -32 22
-51 50 -21 32 -39 50 -52 50 -17 0 -20 -7 -20 -50 0 -43 -3 -50 -20 -50 -19 0
-20 7 -20 119 l0 120 43 4 c55 5 88 -1 110 -20z m530 0 c18 -17 23 -43 9 -43
-5 0 -17 9 -27 20 -27 30 -78 27 -104 -6 -31 -39 -29 -117 4 -149 31 -32 56
-31 93 0 34 29 42 31 42 11 0 -22 -49 -56 -81 -56 -52 0 -79 18 -100 66 -31
70 -6 149 55 175 28 11 86 1 109 -18z m347 -104 c0 -107 -2 -119 -17 -119 -16
0 -18 11 -15 124 3 104 6 124 18 119 11 -4 14 -30 14 -124z m224 117 c70 -29
88 -147 30 -207 -55 -57 -151 -30 -175 49 -20 68 18 151 76 165 33 8 34 8 69
-7z m238 -89 l53 -82 3 88 c2 68 6 87 17 87 11 0 15 -11 15 -37 0 -21 3 -75 7
-120 6 -78 5 -83 -14 -83 -24 0 -37 15 -94 108 -24 39 -47 72 -51 72 -5 0 -8
-40 -8 -90 0 -73 -3 -90 -15 -90 -12 0 -15 20 -15 118 0 65 3 122 6 125 14 14
46 -18 96 -96z m-5159 76 c3 -10 23 -64 45 -120 36 -91 38 -103 22 -103 -11 0
-22 12 -29 30 -9 28 -13 30 -64 30 -53 0 -55 -1 -60 -30 -5 -21 -12 -30 -25
-30 -17 0 -15 12 26 120 34 88 50 120 63 120 9 0 19 -8 22 -17z m707 7 c0 -5
-18 -10 -40 -10 l-40 0 -1 -62 c0 -35 0 -84 1 -110 1 -42 -1 -48 -19 -48 -20
0 -21 5 -21 110 l0 110 -34 0 c-19 0 -38 5 -41 10 -4 6 30 10 94 10 61 0 101
-4 101 -10z m86 -110 c1 -110 0 -120 -18 -120 -16 0 -18 10 -18 120 0 108 2
120 18 120 15 0 17 -13 18 -120z m181 33 l58 -88 3 88 c2 68 6 87 17 87 12 0
15 -22 15 -121 0 -109 -2 -120 -17 -117 -10 2 -45 44 -78 93 l-60 90 -3 -92
c-2 -74 -6 -93 -17 -93 -12 0 -15 21 -15 120 0 113 1 120 20 120 14 0 37 -26
77 -87z m658 70 c9 -22 75 -216 75 -220 0 -2 -7 -3 -16 -3 -8 0 -20 14 -25 30
-10 28 -14 30 -64 30 -50 0 -54 -2 -64 -30 -5 -17 -17 -30 -27 -30 -10 0 -14
5 -11 14 3 8 23 62 43 120 33 91 41 106 60 106 12 0 25 -8 29 -17z m1975 7 c0
-5 -16 -10 -35 -10 l-35 0 0 -110 c0 -91 -3 -110 -15 -110 -12 0 -15 19 -15
110 l0 110 -40 0 c-22 0 -40 5 -40 10 0 6 37 10 90 10 53 0 90 -4 90 -10z
m350 -90 c0 -97 1 -101 25 -112 19 -8 31 -8 50 0 28 13 29 20 26 135 -2 72 -1
77 18 77 20 0 21 -6 21 -94 0 -79 -3 -97 -21 -120 -16 -20 -29 -26 -60 -26
-79 0 -99 33 -99 161 0 72 2 79 20 79 19 0 20 -7 20 -100z m645 90 c-3 -5 -22
-10 -41 -10 l-34 0 0 -110 c0 -91 -3 -110 -15 -110 -12 0 -15 19 -15 110 l0
110 -40 0 c-22 0 -40 5 -40 10 0 6 39 10 96 10 61 0 93 -4 89 -10z"/>
<path d="M2074 6009 c-98 -89 -219 -199 -269 -244 -49 -45 -123 -111 -162
-146 l-73 -63 0 -498 0 -498 675 0 675 0 0 501 0 502 -62 56 c-35 31 -99 90
-143 131 -45 41 -132 122 -195 180 -63 58 -142 130 -175 160 -33 31 -67 61
-76 68 -14 10 -43 -12 -195 -149z"/>
<path d="M3618 5764 c-5 -4 -8 -162 -8 -352 l0 -344 69 4 c56 3 75 9 106 32
65 50 70 73 70 311 0 204 -1 211 -25 259 -34 68 -66 89 -143 94 -34 2 -65 0
-69 -4z"/>
<path d="M5044 5757 c-2 -7 -3 -82 -2 -167 l3 -155 76 0 c62 1 81 5 107 23 44
32 64 102 52 178 -10 63 -28 87 -82 115 -44 22 -146 26 -154 6z"/>
<path d="M5880 5737 c0 -4 -20 -104 -45 -224 -25 -119 -45 -223 -45 -230 0
-10 20 -13 78 -12 42 0 84 3 93 7 13 6 11 33 -25 229 -23 122 -44 225 -48 229
-5 4 -8 4 -8 1z"/>
<path d="M7332 5695 c-6 -22 -28 -123 -48 -223 -31 -155 -35 -185 -23 -193 15
-9 162 -13 171 -4 3 3 2 25 -3 48 -4 23 -22 119 -40 212 -37 199 -43 215 -57
160z"/>
<path d="M3500 4489 l0 -52 40 6 c50 6 70 22 70 53 0 28 -26 44 -74 44 l-36 0
0 -51z"/>
<path d="M5882 4443 c3 -92 4 -98 25 -101 36 -5 80 24 93 63 24 73 -14 135
-82 135 l-39 0 3 -97z"/>
<path d="M6515 4520 c-11 -12 -20 -41 -23 -74 -4 -48 -1 -57 21 -80 35 -35 69
-33 101 5 39 46 33 121 -13 156 -24 19 -66 15 -86 -7z"/>
<path d="M7502 4493 l3 -48 40 3 c41 3 65 23 65 54 0 23 -30 38 -75 38 l-37 0
4 -47z"/>
<path d="M8631 4518 c-56 -59 -21 -178 52 -178 28 0 77 57 77 90 0 40 -20 89
-40 100 -31 16 -68 11 -89 -12z"/>
<path d="M3756 4459 c-9 -23 -16 -43 -14 -44 2 -1 20 -5 41 -9 24 -5 37 -3 37
4 0 12 -38 90 -44 90 -2 0 -11 -19 -20 -41z"/>
<path d="M5400 4517 c0 -3 -9 -29 -20 -57 l-20 -50 45 0 44 0 -16 48 c-14 42
-33 76 -33 59z"/>
</g>
</svg>
